#N canvas 311 20 1128 1050 12;
#X floatatom 656 487 5 0 0 0 - - - 0;
#X obj 576 505 mtof;
#X obj 608 674 *~;
#X obj 576 550 phasor~;
#X obj 576 578 *~ 2;
#X obj 576 607 +~ 1;
#X obj 576 635 vcf~ 1;
#X obj 656 633 vline~;
#X obj 608 704 send~ Synth;
#X obj 373 29 r Bb;
#X obj 408 29 r B;
#X obj 65 29 r C;
#X obj 93 29 r Db;
#X obj 128 29 r D;
#X obj 156 29 r Eb;
#X obj 191 29 r E;
#X obj 219 29 r F;
#X obj 247 29 r Gb;
#X obj 282 29 r G;
#X obj 310 29 r Ab;
#X obj 345 29 r A;
#X msg 70 57 48;
#X msg 100 57 49;
#X msg 129 57 50;
#X msg 159 57 51;
#X msg 189 57 52;
#X msg 219 57 53;
#X msg 249 57 54;
#X msg 279 57 55;
#X msg 308 57 56;
#X msg 338 57 57;
#X msg 368 57 58;
#X msg 398 57 59;
#X floatatom 231 111 5 0 0 0 - - - 0;
#X obj 231 141 t f f f f;
#X obj 216 168 + 0;
#X obj 276 168 + 7;
#X obj 142 195 s arp_root;
#X obj 220 195 s arp_3rd;
#X obj 291 195 s arp_5th;
#X obj 362 195 s arp_7th;
#X floatatom 232 643 5 0 0 0 - - - 0;
#X obj 232 668 sel 0 1 2 3;
#X obj 139 693 r arp_root;
#X obj 217 693 r arp_3rd;
#X obj 288 693 r arp_5th;
#X obj 359 693 r arp_7th;
#X floatatom 139 724 5 0 0 0 - - - 0;
#X floatatom 217 726 5 0 0 0 - - - 0;
#X floatatom 288 724 5 0 0 0 - - - 0;
#X floatatom 359 724 5 0 0 0 - - - 0;
#X obj 232 555 bng 25 250 50 0 empty empty empty 0 -10 0 12 #c7c6ff #000000 #000000;
#X obj 341 480 r 1/16_note;
#X obj 341 504 spigot;
#X obj 224 503 spigot;
#X obj 236 422 sel 0 1 2;
#X obj 224 479 r 1/8_note;
#X obj 105 503 spigot;
#X obj 105 479 r 1/4_note;
#X obj 430 481 tgl 19 0 empty empty empty 0 -10 0 12 #fcfcfc #000000 #000000 0 1;
#X obj 304 479 tgl 19 0 empty empty empty 0 -10 0 12 #fcfcfc #000000 #000000 0 1;
#X obj 185 479 tgl 19 0 empty empty empty 0 -10 0 12 #fcfcfc #000000 #000000 0 1;
#X floatatom 236 391 5 0 3 0 - - - 0;
#X obj 236 364 random 3;
#X obj 232 610 random 4;
#X obj 236 337 metro 400;
#X obj 566 39 r init;
#X obj 566 98 sel 0 1;
#X obj 246 168 +;
#X obj 307 168 +;
#X obj 313 141 r 3rd;
#X obj 358 141 r 7th;
#X msg 561 133 \; 3rd 4 \; 7th 11 \;;
#X msg 633 133 \; 3rd 3 \; 7th 10 \;;
#X obj 656 605 spigot;
#X obj 711 583 tgl 19 0 empty p_PLAY_s empty 0 -10 0 12 #fcfcfc #000000 #000000 0 1;
#X obj 722 308 random 100;
#X floatatom 722 335 5 0 0 0 - - - 0;
#X obj 656 450 +;
#X msg 722 413 0;
#X msg 754 413 12;
#X obj 722 283 bng 19 250 50 0 empty empty empty 0 -10 0 12 #c7c6ff #000000 #000000;
#X obj 723 387 sel 0 1;
#X floatatom 891 342 5 0 100 0 - - - 0;
#X obj 722 360 <;
#X text 755 363 Adds an octave with ^ this much probability;
#X obj 891 270 r init;
#X msg 891 297 37;
#X text 921 296 Default probability;
#X msg 656 551 0.5 20 \, 0 75 20;
#X text 31 374 Rate Selector - randomly selects/deselects the note rate every 0.4 seconds, f 29;
#X text 300 626 Chooses a random note from the arpeggio to play, f 25;
#X text 663 525 ADSR envelope for the synth;
#X text 650 76 Randomly picks Major or Minor on startup, f 19;
#X text 561 184 Major7 intervals, f 9;
#X text 636 184 Minor7 intervals, f 9;
#X text 274 109 Root note for the arpeggio;
#X text 341 168 Building the chord;
#X text 437 558 Sawtooth wave with some filtering, f 18;
#X text 260 879 This patch receives the song key from key_chooser and builds either a major7 or minor7 chord from it. It then randomly cycles through the notes at a varying rate \, and occasionally adds notes from the higher octave. The midi values of these notes are then converted to a frequency \, which is input into a sawtooth wave generator (phasor~) before finally being sent to the mixer., f 64;
#X text 438 826 Arpeggiator;
#X text 383 992 Created by George Caselton;
#X text 401 1016 Last updated: 29/07/24;
#X obj 566 69 random++ 2;
#X text 701 706 Audio output;
#X obj 236 308 r p_PLAY_s;
#X obj 230 768 s arp_note;
#X obj 656 251 r arp_note;
#X connect 0 0 1 0;
#X connect 0 0 89 0;
#X connect 1 0 6 1;
#X connect 1 0 3 0;
#X connect 2 0 8 0;
#X connect 3 0 4 0;
#X connect 4 0 5 0;
#X connect 5 0 6 0;
#X connect 6 0 2 0;
#X connect 7 0 2 1;
#X connect 9 0 31 0;
#X connect 10 0 32 0;
#X connect 11 0 21 0;
#X connect 12 0 22 0;
#X connect 13 0 23 0;
#X connect 14 0 24 0;
#X connect 15 0 25 0;
#X connect 16 0 26 0;
#X connect 17 0 27 0;
#X connect 18 0 28 0;
#X connect 19 0 29 0;
#X connect 20 0 30 0;
#X connect 21 0 33 0;
#X connect 22 0 33 0;
#X connect 23 0 33 0;
#X connect 24 0 33 0;
#X connect 25 0 33 0;
#X connect 26 0 33 0;
#X connect 27 0 33 0;
#X connect 28 0 33 0;
#X connect 29 0 33 0;
#X connect 30 0 33 0;
#X connect 31 0 33 0;
#X connect 32 0 33 0;
#X connect 33 0 34 0;
#X connect 34 0 35 0;
#X connect 34 1 68 0;
#X connect 34 2 36 0;
#X connect 34 3 69 0;
#X connect 35 0 37 0;
#X connect 36 0 39 0;
#X connect 41 0 42 0;
#X connect 42 0 47 0;
#X connect 42 1 48 0;
#X connect 42 2 49 0;
#X connect 42 3 50 0;
#X connect 43 0 47 0;
#X connect 44 0 48 0;
#X connect 45 0 49 0;
#X connect 46 0 50 0;
#X connect 47 0 106 0;
#X connect 48 0 106 0;
#X connect 49 0 106 0;
#X connect 50 0 106 0;
#X connect 51 0 64 0;
#X connect 52 0 53 0;
#X connect 53 0 51 0;
#X connect 54 0 51 0;
#X connect 55 0 61 0;
#X connect 55 1 60 0;
#X connect 55 2 59 0;
#X connect 56 0 54 0;
#X connect 57 0 51 0;
#X connect 58 0 57 0;
#X connect 59 0 53 1;
#X connect 60 0 54 1;
#X connect 61 0 57 1;
#X connect 62 0 55 0;
#X connect 63 0 62 0;
#X connect 64 0 41 0;
#X connect 65 0 63 0;
#X connect 66 0 103 0;
#X connect 67 0 72 0;
#X connect 67 1 73 0;
#X connect 68 0 38 0;
#X connect 69 0 40 0;
#X connect 70 0 68 1;
#X connect 71 0 69 1;
#X connect 74 0 7 0;
#X connect 75 0 74 1;
#X connect 76 0 77 0;
#X connect 77 0 84 0;
#X connect 78 0 0 0;
#X connect 79 0 78 1;
#X connect 80 0 78 1;
#X connect 81 0 76 0;
#X connect 82 0 79 0;
#X connect 82 1 80 0;
#X connect 83 0 84 1;
#X connect 84 0 82 0;
#X connect 86 0 87 0;
#X connect 87 0 83 0;
#X connect 89 0 74 0;
#X connect 103 0 67 0;
#X connect 105 0 65 0;
#X connect 107 0 81 0;
#X connect 107 0 78 0;
