#N canvas 3263 276 722 742 12;
#X text 283 58 Audio Recorder;
#X msg 403 210 stop;
#X obj 290 370 catch~ OUT;
#X obj 222 217 savepanel;
#X obj 222 243 makefilename %s.wav;
#X msg 222 287 open \$1 \, start;
#X obj 222 162 sel 1;
#X msg 392 288 1;
#X msg 442 181 0;
#X text 157 585 This patch handles the recording of the audio into a WAV file. It prompts users for a destination/file name then simultaneously sends a PLAY signal and starts recording.;
#X text 260 664 Created by George Caselton;
#X text 282 697 Last updated: 4/8/24;
#X text 365 313 Start the sonification, f 20;
#X text 372 370 Receive audio signal;
#X text 64 288 Start writing to file;
#X text 475 171 Stop the sonification when recording stops, f 21;
#X text 86 217 Open file explorer;
#X obj 222 132 inlet;
#X obj 442 307 outlet;
#X obj 222 411 writesf~ 2;
#X connect 1 0 19 0;
#X connect 2 0 19 0;
#X connect 2 0 19 1;
#X connect 3 0 4 0;
#X connect 4 0 5 0;
#X connect 4 0 7 0;
#X connect 5 0 19 0;
#X connect 6 0 3 0;
#X connect 6 1 1 0;
#X connect 6 1 8 0;
#X connect 7 0 18 0;
#X connect 8 0 18 0;
#X connect 17 0 6 0;
