#N canvas 2597 44 1343 958 12;
#X obj 56 220 mtof;
#X floatatom 56 257 5 0 0 0 - - - 0;
#X obj 56 364 osc~;
#X obj 116 364 osc~;
#X obj 116 328 * 2;
#X floatatom 75 462 5 0 1 0 - - - 0;
#X obj 57 494 *~;
#X floatatom 135 462 5 0 1 0 - - - 0;
#X obj 117 494 *~;
#X floatatom 204 462 5 0 1 0 - - - 0;
#X obj 186 494 *~;
#X obj 75 405 r init;
#X msg 135 436 0.05;
#X msg 204 435 0.05;
#X obj 187 328 * 3;
#X obj 187 366 osc~;
#X floatatom 423 462 5 0 1 0 - - - 0;
#X obj 405 494 *~;
#X msg 423 435 0.05;
#X obj 406 366 osc~;
#X obj 406 328 / 2;
#X msg 75 436 0.2;
#X floatatom 284 462 5 0 1 0 - - - 0;
#X obj 266 494 *~;
#X msg 284 435 0.05;
#X obj 267 366 osc~;
#X obj 267 328 expr ($f1*3)*0.99;
#X floatatom 56 134 5 0 0 0 - - - 0;
#X obj 57 825 send~ Bass;
#X obj 110 593 tgl 19 0 empty bass_adsr empty 0 -10 0 12 #ffc7c6 #000000 #000000 0 1;
#X obj 57 593 *~;
#X obj 315 203 bng 19 250 50 0 empty empty empty 0 -10 0 12 #fcfcfc #000000 #000000;
#X obj 315 178 r One;
#X floatatom 315 230 5 0 1 0 - - - 0;
#X obj 341 202 tgl 19 0 empty 1on empty 0 -10 0 12 #fcfcfc #000000 #000000 0 1;
#X obj 370 203 bng 19 250 50 0 empty empty empty 0 -10 0 12 #fcfcfc #000000 #000000;
#X floatatom 370 230 5 0 1 0 - - - 0;
#X obj 396 202 tgl 19 0 empty 2on empty 0 -10 0 12 #fcfcfc #000000 #000000 0 1;
#X obj 370 178 r Two;
#X obj 423 201 bng 19 250 50 0 empty empty empty 0 -10 0 12 #fcfcfc #000000 #000000;
#X floatatom 423 228 5 0 1 0 - - - 0;
#X obj 449 200 tgl 19 0 empty 3on empty 0 -10 0 12 #fcfcfc #000000 #000000 0 1;
#X obj 423 176 r Three;
#X obj 482 200 bng 19 250 50 0 empty empty empty 0 -10 0 12 #fcfcfc #000000 #000000;
#X floatatom 482 227 5 0 1 0 - - - 0;
#X obj 508 199 tgl 19 0 empty 4on empty 0 -10 0 12 #fcfcfc #000000 #000000 0 1;
#X obj 482 175 r Four;
#X obj 535 198 bng 19 250 50 0 empty empty empty 0 -10 0 12 #fcfcfc #000000 #000000;
#X floatatom 535 225 5 0 1 0 - - - 0;
#X obj 561 197 tgl 19 0 empty 5on empty 0 -10 0 12 #fcfcfc #000000 #000000 0 1;
#X obj 535 173 r Five;
#X obj 586 199 bng 19 250 50 0 empty empty empty 0 -10 0 12 #fcfcfc #000000 #000000;
#X floatatom 586 226 5 0 1 0 - - - 0;
#X obj 612 198 tgl 19 0 empty 6on empty 0 -10 0 12 #fcfcfc #000000 #000000 0 1;
#X obj 586 174 r Six;
#X obj 642 198 bng 19 250 50 0 empty empty empty 0 -10 0 12 #fcfcfc #000000 #000000;
#X floatatom 642 225 5 0 1 0 - - - 0;
#X obj 668 197 tgl 19 0 empty 7on empty 0 -10 0 12 #fcfcfc #000000 #000000 0 1;
#X obj 642 173 r Seven;
#X obj 700 197 bng 19 250 50 0 empty empty empty 0 -10 0 12 #fcfcfc #000000 #000000;
#X floatatom 700 224 5 0 1 0 - - - 0;
#X obj 726 196 tgl 19 0 empty 8on empty 0 -10 0 12 #fcfcfc #000000 #000000 0 1;
#X obj 700 172 r Eight;
#X obj 760 196 bng 19 250 50 0 empty empty empty 0 -10 0 12 #fcfcfc #000000 #000000;
#X floatatom 760 223 5 0 1 0 - - - 0;
#X obj 786 195 tgl 19 0 empty 9on empty 0 -10 0 12 #fcfcfc #000000 #000000 0 1;
#X obj 760 171 r Nine;
#X obj 811 197 bng 19 250 50 0 empty empty empty 0 -10 0 12 #fcfcfc #000000 #000000;
#X floatatom 811 224 5 0 1 0 - - - 0;
#X obj 837 196 tgl 19 0 empty 10on empty 0 -10 0 12 #fcfcfc #000000 #000000 0 1;
#X obj 811 172 r Ten;
#X obj 863 196 bng 19 250 50 0 empty empty empty 0 -10 0 12 #fcfcfc #000000 #000000;
#X floatatom 863 223 5 0 1 0 - - - 0;
#X obj 889 195 tgl 19 0 empty 11on empty 0 -10 0 12 #fcfcfc #000000 #000000 0 1;
#X obj 864 171 r Eleven;
#X obj 929 195 bng 19 250 50 0 empty empty empty 0 -10 0 12 #fcfcfc #000000 #000000;
#X floatatom 929 222 5 0 1 0 - - - 0;
#X obj 955 194 tgl 19 0 empty 12on empty 0 -10 0 12 #fcfcfc #000000 #000000 0 1;
#X obj 930 170 r Twelve;
#X obj 996 195 bng 19 250 50 0 empty empty empty 0 -10 0 12 #fcfcfc #000000 #000000;
#X floatatom 996 222 5 0 1 0 - - - 0;
#X obj 1022 194 tgl 19 0 empty 13on empty 0 -10 0 12 #fcfcfc #000000 #000000 0 1;
#X obj 997 170 r Thirteen;
#X obj 1080 193 bng 19 250 50 0 empty empty empty 0 -10 0 12 #fcfcfc #000000 #000000;
#X floatatom 1080 220 5 0 1 0 - - - 0;
#X obj 1106 192 tgl 19 0 empty 14on empty 0 -10 0 12 #fcfcfc #000000 #000000 0 1;
#X obj 1081 168 r Fourteen;
#X obj 1165 194 bng 19 250 50 0 empty empty empty 0 -10 0 12 #fcfcfc #000000 #000000;
#X floatatom 1165 221 5 0 1 0 - - - 0;
#X obj 1191 193 tgl 19 0 empty 15on empty 0 -10 0 12 #fcfcfc #000000 #000000 0 1;
#X obj 1166 169 r Fifteen;
#X obj 1242 195 bng 19 250 50 0 empty empty empty 0 -10 0 12 #fcfcfc #000000 #000000;
#X floatatom 1242 222 5 0 1 0 - - - 0;
#X obj 1268 194 tgl 19 0 empty 16on empty 0 -10 0 12 #fcfcfc #000000 #000000 0 1;
#X obj 1243 170 r Sixteen;
#X obj 110 621 sel 1;
#X obj 110 681 vline~;
#X obj 57 719 *~;
#X obj 191 700 hsl 162 19 0 5 0 0 empty empty Distortion -2 -10 0 12 #ffc7c6 #000000 #000000 0 1;
#X obj 56 750 clip~ -0.5 0.5;
#X text 456 378 Oscillators provided by: https://www.reddit.com/r/puredata/comments/ns5txz/bass_synth_2/, f 33;
#X obj 188 594 r init;
#X obj 57 785 *~ 3;
#X obj 320 47 r Bb;
#X obj 355 47 r B;
#X obj 12 47 r C;
#X obj 40 47 r Db;
#X obj 75 47 r D;
#X obj 103 47 r Eb;
#X obj 138 47 r E;
#X obj 166 47 r F;
#X obj 194 47 r Gb;
#X obj 229 47 r G;
#X obj 257 47 r Ab;
#X obj 292 47 r A;
#X msg 345 75 35;
#X msg 17 75 36;
#X msg 47 75 37;
#X msg 76 75 38;
#X msg 106 75 39;
#X msg 136 75 40;
#X msg 166 75 41;
#X msg 196 75 42;
#X msg 226 75 43;
#X msg 255 75 44;
#X msg 285 75 45;
#X obj 649 70 bass_patterns;
#X msg 188 619 1.25;
#X msg 315 75 34;
#X msg 113 652 1 25;
#X obj 651 100 change_to_iv;
#X obj 131 178 r chord_change;
#X floatatom 56 197 5 0 0 0 - - - 0;
#X obj 131 152 s bass_root;
#X text 653 40 Sub-patches;
#X msg 150 652 0 85;
#X obj 393 741 s bass_adsr;
#X obj 393 711 spigot;
#X obj 393 628 r bass_on;
#X obj 432 685 tgl 19 0 empty empty empty 0 -10 0 12 #fcfcfc #000000 #000000 0 1;
#X obj 457 685 s bass_adsr;
#X obj 138 825 tabwrite~ bass_waveform;
#X obj 138 786 r waveform_clock;
#X obj 432 657 r p_PLAY_s;
#X obj 772 315 s bass_on;
#X text 911 510 Bass;
#X text 732 561 This patch controls the bass \, including selecting a bassline from the bass_patterns patch \, and creating a change up a fourth every 4 bars to create some movement.;
#X text 843 638 Created by George Caselton;
#X text 853 669 Last updated: 19/08/2024;
#X text 472 587 This makes sure no bass plays when the PLAY button is off, f 16;
#X text 107 18 Receive song key here;
#X text 343 146 16-step sequencer;
#X text 187 724 Little bit of distortion to liven it up, f 25;
#X connect 0 0 1 0;
#X connect 1 0 2 0;
#X connect 1 0 4 0;
#X connect 1 0 14 0;
#X connect 1 0 20 0;
#X connect 1 0 26 0;
#X connect 2 0 6 0;
#X connect 3 0 8 0;
#X connect 4 0 3 0;
#X connect 5 0 6 1;
#X connect 6 0 30 0;
#X connect 7 0 8 1;
#X connect 8 0 30 0;
#X connect 9 0 10 1;
#X connect 10 0 30 0;
#X connect 11 0 21 0;
#X connect 11 0 12 0;
#X connect 11 0 13 0;
#X connect 11 0 24 0;
#X connect 11 0 18 0;
#X connect 12 0 7 0;
#X connect 13 0 9 0;
#X connect 14 0 15 0;
#X connect 15 0 10 0;
#X connect 16 0 17 1;
#X connect 17 0 30 0;
#X connect 18 0 16 0;
#X connect 19 0 17 0;
#X connect 20 0 19 0;
#X connect 21 0 5 0;
#X connect 22 0 23 1;
#X connect 23 0 30 0;
#X connect 24 0 22 0;
#X connect 25 0 23 0;
#X connect 26 0 25 0;
#X connect 27 0 133 0;
#X connect 27 0 132 0;
#X connect 29 0 95 0;
#X connect 30 0 97 0;
#X connect 31 0 33 0;
#X connect 32 0 31 0;
#X connect 33 0 144 0;
#X connect 34 0 33 0;
#X connect 35 0 36 0;
#X connect 36 0 144 0;
#X connect 37 0 36 0;
#X connect 38 0 35 0;
#X connect 39 0 40 0;
#X connect 40 0 144 0;
#X connect 41 0 40 0;
#X connect 42 0 39 0;
#X connect 43 0 44 0;
#X connect 44 0 144 0;
#X connect 45 0 44 0;
#X connect 46 0 43 0;
#X connect 47 0 48 0;
#X connect 48 0 144 0;
#X connect 49 0 48 0;
#X connect 50 0 47 0;
#X connect 51 0 52 0;
#X connect 52 0 144 0;
#X connect 53 0 52 0;
#X connect 54 0 51 0;
#X connect 55 0 56 0;
#X connect 56 0 144 0;
#X connect 57 0 56 0;
#X connect 58 0 55 0;
#X connect 59 0 60 0;
#X connect 60 0 144 0;
#X connect 61 0 60 0;
#X connect 62 0 59 0;
#X connect 63 0 64 0;
#X connect 64 0 144 0;
#X connect 65 0 64 0;
#X connect 66 0 63 0;
#X connect 67 0 68 0;
#X connect 68 0 144 0;
#X connect 69 0 68 0;
#X connect 70 0 67 0;
#X connect 71 0 72 0;
#X connect 72 0 144 0;
#X connect 73 0 72 0;
#X connect 74 0 71 0;
#X connect 75 0 76 0;
#X connect 76 0 144 0;
#X connect 77 0 76 0;
#X connect 78 0 75 0;
#X connect 79 0 80 0;
#X connect 80 0 144 0;
#X connect 81 0 80 0;
#X connect 82 0 79 0;
#X connect 83 0 84 0;
#X connect 84 0 144 0;
#X connect 85 0 84 0;
#X connect 86 0 83 0;
#X connect 87 0 88 0;
#X connect 88 0 144 0;
#X connect 89 0 88 0;
#X connect 90 0 87 0;
#X connect 91 0 92 0;
#X connect 92 0 144 0;
#X connect 93 0 92 0;
#X connect 94 0 91 0;
#X connect 95 0 129 0;
#X connect 95 1 135 0;
#X connect 96 0 30 1;
#X connect 97 0 99 0;
#X connect 98 0 97 1;
#X connect 99 0 102 0;
#X connect 101 0 127 0;
#X connect 102 0 28 0;
#X connect 102 0 141 0;
#X connect 103 0 128 0;
#X connect 104 0 115 0;
#X connect 105 0 116 0;
#X connect 106 0 117 0;
#X connect 107 0 118 0;
#X connect 108 0 119 0;
#X connect 109 0 120 0;
#X connect 110 0 121 0;
#X connect 111 0 122 0;
#X connect 112 0 123 0;
#X connect 113 0 124 0;
#X connect 114 0 125 0;
#X connect 115 0 27 0;
#X connect 116 0 27 0;
#X connect 117 0 27 0;
#X connect 118 0 27 0;
#X connect 119 0 27 0;
#X connect 120 0 27 0;
#X connect 121 0 27 0;
#X connect 122 0 27 0;
#X connect 123 0 27 0;
#X connect 124 0 27 0;
#X connect 125 0 27 0;
#X connect 127 0 98 0;
#X connect 128 0 27 0;
#X connect 129 0 96 0;
#X connect 131 0 132 0;
#X connect 132 0 0 0;
#X connect 135 0 96 0;
#X connect 137 0 136 0;
#X connect 138 0 137 0;
#X connect 139 0 137 1;
#X connect 142 0 141 0;
#X connect 143 0 139 0;
#X connect 143 0 140 0;
