#N canvas 2742 196 1568 914 12;
#X obj 249 143 sel 0 1 2 3 4 5 6 7 8 9;
#X text 800 47 Bass Patterns;
#X floatatom 249 109 5 0 0 0 - - - 0;
#X msg 46 192 \; 1on 1 \; 3on 1 \; 6on 1 \; 9on 1 \;;
#X msg 103 192 \; 2on 1 \; 4on 1 \; 6on 1 \; 9on 1 \;;
#X msg 160 192 \; 3on 1 \; 5on 1 \; 8on 1 \; 11on 1 \; 12on 1 \;;
#X msg 224 192 \; 1on 1 \; 2on 1 \; 5on 1 \; 6on 1 \; 8on 1 \; 11on 1 \;;
#X msg 288 192 \; 1on 1 \; 2on 1 \; 3on 1 \; 4on 1 \; 7on 1 \; 8on 1 \; 9on 1 \;;
#X msg 345 192 \; 3on 1 \; 4on 1 \; 7on 1 \; 9on 1 \; 16on 1 \;;
#X msg 473 192 \; 3on 1 \; 6on 1 \; 9on 1 \;;
#X msg 530 192 \; 3on 1 \; 6on 1 \; 9on 1 \; 12on 1 \;;
#X msg 594 192 \; 3on 1 \; 6on 1 \; 9on 1 \; 15on 1 \;;
#X text 662 83 This patch randomly chooses one of 10 bass patterns \, which are activated by the message boxes sending a 1 (on) to the corresponding steps in the 16-step sequence., f 57;
#X text 756 159 Created by George Caselton;
#X text 774 183 Last updated: 29/07/24;
#X obj 249 48 r init;
#X msg 409 192 \; 1on 1 \; 5on 1 \; 8on 1 \; 11on 1 \; 12on 1 \;;
#X obj 249 77 random++ 10;
#X connect 0 0 3 0;
#X connect 0 1 4 0;
#X connect 0 2 5 0;
#X connect 0 3 6 0;
#X connect 0 4 7 0;
#X connect 0 5 8 0;
#X connect 0 6 16 0;
#X connect 0 7 9 0;
#X connect 0 8 10 0;
#X connect 0 9 11 0;
#X connect 2 0 0 0;
#X connect 15 0 17 0;
#X connect 17 0 2 0;
