#N canvas 2861 120 830 830 12;
#X obj 181 233 bng 19 250 50 0 empty empty empty 0 -10 0 12 #fcfcfc #000000 #000000;
#X msg 353 170 tempo \$1 permin;
#X floatatom 353 140 5 0 0 0 - - - 0;
#X obj 181 264 f;
#X obj 222 264 + 1;
#X floatatom 181 289 5 0 0 0 - - - 0;
#X msg 131 232 0;
#X obj 181 201 metro 0.25 125 permin;
#X floatatom 166 469 5 0 0 0 - - - 0;
#X obj 166 493 sel 0;
#X obj 166 444 mod 64;
#X obj 181 312 s counter;
#X obj 166 419 r counter;
#X floatatom 247 470 5 0 0 0 - - - 0;
#X obj 247 494 sel 0;
#X obj 247 420 r counter;
#X obj 247 445 mod 32;
#X floatatom 325 470 5 0 0 0 - - - 0;
#X obj 325 494 sel 0;
#X obj 325 420 r counter;
#X obj 325 445 mod 16;
#X obj 325 544 s 1_bar;
#X floatatom 400 471 5 0 0 0 - - - 0;
#X obj 400 495 sel 0;
#X obj 400 421 r counter;
#X obj 400 446 mod 8;
#X obj 400 545 s 1/2_note;
#X floatatom 488 471 5 0 0 0 - - - 0;
#X obj 488 495 sel 0;
#X obj 488 421 r counter;
#X obj 488 446 mod 4;
#X obj 488 545 s 1/4_note;
#X floatatom 578 471 5 0 0 0 - - - 0;
#X obj 578 495 sel 0;
#X obj 578 421 r counter;
#X obj 578 446 mod 2;
#X obj 578 545 s 1/8_note;
#X obj 258 252 s 1/16_note;
#X text 166 393 4 Bars;
#X text 255 393 2 Bars;
#X text 332 394 1 Bar;
#X text 403 394 1/2 Note;
#X text 492 394 1/4 Note;
#X text 579 395 1/8 Note;
#X obj 166 518 bng 19 250 50 0 empty empty empty 0 -10 0 12 #fcfcfc #000000 #000000;
#X obj 247 519 bng 19 250 50 0 empty empty empty 0 -10 0 12 #fcfcfc #000000 #000000;
#X obj 325 519 bng 19 250 50 0 empty empty empty 0 -10 0 12 #fcfcfc #000000 #000000;
#X obj 400 520 bng 19 250 50 0 empty empty empty 0 -10 0 12 #fcfcfc #000000 #000000;
#X obj 488 520 bng 19 250 50 0 empty empty empty 0 -10 0 12 #fcfcfc #000000 #000000;
#X obj 578 520 bng 19 250 50 0 empty empty empty 0 -10 0 12 #fcfcfc #000000 #000000;
#X obj 131 198 sel 0;
#X obj 166 543 s 4_bars;
#X obj 247 544 s 2_bars;
#X text 372 40 Clock;
#X obj 472 258 tgl 19 0 empty p_PLAY_s empty 0 -10 0 12 #fcfcfc #000000 #000000 0 1;
#X obj 472 282 metro 50;
#X obj 472 306 s waveform_clock;
#X obj 181 162 r p_PLAY_s;
#X obj 353 112 receive bpm;
#X text 265 231 1/16 note;
#X text 546 252 This clock triggers the waveform visualisers to read in the wave every 50ms, f 27;
#X text 444 113 Receive tempo here;
#X text 193 622 This patch keeps time by reading in the tempo and triggering a counter. The counter is sent to modulo operators which effectively multiplies the beat into larger groups. These are then sent as bang signals.;
#X text 292 715 Created by George Caselton;
#X text 305 741 Last updated: 10/08/2024;
#X connect 0 0 3 0;
#X connect 0 0 37 0;
#X connect 1 0 7 0;
#X connect 2 0 1 0;
#X connect 3 0 4 0;
#X connect 3 0 5 0;
#X connect 4 0 3 1;
#X connect 5 0 11 0;
#X connect 6 0 3 1;
#X connect 7 0 0 0;
#X connect 8 0 9 0;
#X connect 9 0 44 0;
#X connect 10 0 8 0;
#X connect 12 0 10 0;
#X connect 13 0 14 0;
#X connect 14 0 45 0;
#X connect 15 0 16 0;
#X connect 16 0 13 0;
#X connect 17 0 18 0;
#X connect 18 0 46 0;
#X connect 19 0 20 0;
#X connect 20 0 17 0;
#X connect 22 0 23 0;
#X connect 23 0 47 0;
#X connect 24 0 25 0;
#X connect 25 0 22 0;
#X connect 27 0 28 0;
#X connect 28 0 48 0;
#X connect 29 0 30 0;
#X connect 30 0 27 0;
#X connect 32 0 33 0;
#X connect 33 0 49 0;
#X connect 34 0 35 0;
#X connect 35 0 32 0;
#X connect 44 0 51 0;
#X connect 45 0 52 0;
#X connect 46 0 21 0;
#X connect 47 0 26 0;
#X connect 48 0 31 0;
#X connect 49 0 36 0;
#X connect 50 0 6 0;
#X connect 54 0 55 0;
#X connect 55 0 56 0;
#X connect 57 0 7 0;
#X connect 57 0 50 0;
#X connect 58 0 2 0;
