#N canvas 2487 66 1918 1064 12;
#X obj 19 74 loadbang;
#X obj 99 74 sel 0;
#X obj 99 107 bng 19 250 50 0 empty empty empty 0 -10 0 12 #fcfcfc #000000 #000000;
#X msg 99 140 -1;
#X obj 155 114 bng 19 250 50 0 empty empty empty 0 -10 0 12 #feffc6 #000000 #000000;
#X obj 155 166 int 1;
#X obj 216 197 + 1;
#X floatatom 155 199 5 0 0 0 - - - 0;
#X obj 155 250 + 1;
#X floatatom 155 277 5 0 0 0 - - - 0;
#X obj 155 400 bng 19 250 50 0 empty empty empty 0 -10 0 12 #fcfcfc #000000 #000000;
#X obj 155 433 s One;
#X obj 212 400 bng 19 250 50 0 empty empty empty 0 -10 0 12 #fcfcfc #000000 #000000;
#X obj 212 433 s Two;
#X obj 264 400 bng 19 250 50 0 empty empty empty 0 -10 0 12 #fcfcfc #000000 #000000;
#X obj 264 433 s Three;
#X obj 329 400 bng 19 250 50 0 empty empty empty 0 -10 0 12 #fcfcfc #000000 #000000;
#X obj 329 433 s Four;
#X obj 395 400 bng 19 250 50 0 empty empty empty 0 -10 0 12 #fcfcfc #000000 #000000;
#X obj 395 433 s Five;
#X obj 456 400 bng 19 250 50 0 empty empty empty 0 -10 0 12 #fcfcfc #000000 #000000;
#X obj 456 433 s Six;
#X obj 517 400 bng 19 250 50 0 empty empty empty 0 -10 0 12 #fcfcfc #000000 #000000;
#X obj 517 433 s Seven;
#X obj 584 400 bng 19 250 50 0 empty empty empty 0 -10 0 12 #fcfcfc #000000 #000000;
#X obj 584 433 s Eight;
#X obj 751 120 bng 19 250 50 0 empty empty empty 0 -10 0 12 #fcfcfc #000000 #000000;
#X obj 790 119 tgl 19 0 empty hi_hat1 empty 0 -10 0 12 #fcfcfc #000000 #000000 0 1;
#X obj 751 153 spigot;
#X obj 751 185 bng 19 250 50 0 empty empty empty 0 -10 0 12 #fcfcfc #000000 #000000;
#X obj 815 119 bng 19 250 50 0 empty empty empty 0 -10 0 12 #fcfcfc #000000 #000000;
#X obj 854 118 tgl 19 0 empty hi_hat2 empty 0 -10 0 12 #fcfcfc #000000 #000000 0 1;
#X obj 815 152 spigot;
#X obj 815 185 bng 19 250 50 0 empty empty empty 0 -10 0 12 #fcfcfc #000000 #000000;
#X obj 879 118 bng 19 250 50 0 empty empty empty 0 -10 0 12 #fcfcfc #000000 #000000;
#X obj 918 117 tgl 19 0 empty hi_hat3 empty 0 -10 0 12 #fcfcfc #000000 #000000 0 1;
#X obj 879 151 spigot;
#X obj 879 185 bng 19 250 50 0 empty empty empty 0 -10 0 12 #fcfcfc #000000 #000000;
#X obj 943 117 bng 19 250 50 0 empty empty empty 0 -10 0 12 #fcfcfc #000000 #000000;
#X obj 982 116 tgl 19 0 empty hi_hat4 empty 0 -10 0 12 #fcfcfc #000000 #000000 0 1;
#X obj 943 150 spigot;
#X obj 943 185 bng 19 250 50 0 empty empty empty 0 -10 0 12 #fcfcfc #000000 #000000;
#X obj 1007 116 bng 19 250 50 0 empty empty empty 0 -10 0 12 #fcfcfc #000000 #000000;
#X obj 1046 115 tgl 19 0 empty hi_hat5 empty 0 -10 0 12 #fcfcfc #000000 #000000 0 1;
#X obj 1007 149 spigot;
#X obj 1007 185 bng 19 250 50 0 empty empty empty 0 -10 0 12 #fcfcfc #000000 #000000;
#X obj 1071 115 bng 19 250 50 0 empty empty empty 0 -10 0 12 #fcfcfc #000000 #000000;
#X obj 1110 114 tgl 19 0 empty hi_hat6 empty 0 -10 0 12 #fcfcfc #000000 #000000 0 1;
#X obj 1071 148 spigot;
#X obj 1071 184 bng 19 250 50 0 empty empty empty 0 -10 0 12 #fcfcfc #000000 #000000;
#X obj 1135 114 bng 19 250 50 0 empty empty empty 0 -10 0 12 #fcfcfc #000000 #000000;
#X obj 1174 113 tgl 19 0 empty hi_hat7 empty 0 -10 0 12 #fcfcfc #000000 #000000 0 1;
#X obj 1135 147 spigot;
#X obj 1135 183 bng 19 250 50 0 empty empty empty 0 -10 0 12 #fcfcfc #000000 #000000;
#X obj 1199 113 bng 19 250 50 0 empty empty empty 0 -10 0 12 #fcfcfc #000000 #000000;
#X obj 1238 112 tgl 19 0 empty hi_hat8 empty 0 -10 0 12 #fcfcfc #000000 #000000 0 1;
#X obj 1199 146 spigot;
#X obj 1199 182 bng 19 250 50 0 empty empty empty 0 -10 0 12 #fcfcfc #000000 #000000;
#X obj 1240 269 send Hi-hat;
#X obj 395 773 receive Cymbal;
#X obj 395 828 readsf~;
#X obj 331 774 readsf~;
#X obj 331 802 *~ 0.75;
#X obj 331 719 receive Hi-hat;
#X obj 151 610 readsf~;
#X obj 151 556 receive Kick;
#X obj 211 663 readsf~;
#X obj 211 609 receive Snare;
#X text 45 108 Reset;
#X obj 155 224 % 16;
#X obj 155 351 sel 1 2 3 4 5 6 7 8 9 10 11 12 13 14 15 16;
#X obj 155 463 bng 19 250 50 0 empty empty empty 0 -10 0 12 #fcfcfc #000000 #000000;
#X obj 213 463 bng 19 250 50 0 empty empty empty 0 -10 0 12 #fcfcfc #000000 #000000;
#X obj 265 463 bng 19 250 50 0 empty empty empty 0 -10 0 12 #fcfcfc #000000 #000000;
#X obj 334 463 bng 19 250 50 0 empty empty empty 0 -10 0 12 #fcfcfc #000000 #000000;
#X obj 400 463 bng 19 250 50 0 empty empty empty 0 -10 0 12 #fcfcfc #000000 #000000;
#X obj 483 463 bng 19 250 50 0 empty empty empty 0 -10 0 12 #fcfcfc #000000 #000000;
#X obj 566 463 bng 19 250 50 0 empty empty empty 0 -10 0 12 #fcfcfc #000000 #000000;
#X obj 642 463 bng 19 250 50 0 empty empty empty 0 -10 0 12 #fcfcfc #000000 #000000;
#X obj 155 496 s Nine;
#X obj 213 496 s Ten;
#X obj 265 496 s Eleven;
#X obj 334 496 s Twelve;
#X obj 400 496 s Thirteen;
#X obj 483 496 s Fourteen;
#X obj 566 496 s Fifteen;
#X obj 642 496 s Sixteen;
#X obj 751 87 r One;
#X obj 815 86 r Two;
#X obj 879 85 r Three;
#X obj 943 84 r Four;
#X obj 1007 84 r Five;
#X obj 1071 82 r Six;
#X obj 1135 81 r Seven;
#X obj 1199 80 r Eight;
#X obj 1263 112 bng 19 250 50 0 empty empty empty 0 -10 0 12 #fcfcfc #000000 #000000;
#X obj 1302 111 tgl 19 0 empty hi_hat9 empty 0 -10 0 12 #fcfcfc #000000 #000000 0 1;
#X obj 1263 145 spigot;
#X obj 1263 180 bng 19 250 50 0 empty empty empty 0 -10 0 12 #fcfcfc #000000 #000000;
#X obj 1327 111 bng 19 250 50 0 empty empty empty 0 -10 0 12 #fcfcfc #000000 #000000;
#X obj 1366 110 tgl 19 0 empty hi_hat10 empty 0 -10 0 12 #fcfcfc #000000 #000000 0 1;
#X obj 1327 144 spigot;
#X obj 1327 179 bng 19 250 50 0 empty empty empty 0 -10 0 12 #fcfcfc #000000 #000000;
#X obj 1391 110 bng 19 250 50 0 empty empty empty 0 -10 0 12 #fcfcfc #000000 #000000;
#X obj 1430 109 tgl 19 0 empty hi_hat11 empty 0 -10 0 12 #fcfcfc #000000 #000000 0 1;
#X obj 1391 143 spigot;
#X obj 1391 177 bng 19 250 50 0 empty empty empty 0 -10 0 12 #fcfcfc #000000 #000000;
#X obj 1455 109 bng 19 250 50 0 empty empty empty 0 -10 0 12 #fcfcfc #000000 #000000;
#X obj 1494 108 tgl 19 0 empty hi_hat12 empty 0 -10 0 12 #fcfcfc #000000 #000000 0 1;
#X obj 1455 142 spigot;
#X obj 1455 177 bng 19 250 50 0 empty empty empty 0 -10 0 12 #fcfcfc #000000 #000000;
#X obj 1519 108 bng 19 250 50 0 empty empty empty 0 -10 0 12 #fcfcfc #000000 #000000;
#X obj 1558 107 tgl 19 0 empty hi_hat13 empty 0 -10 0 12 #fcfcfc #000000 #000000 0 1;
#X obj 1519 141 spigot;
#X obj 1519 177 bng 19 250 50 0 empty empty empty 0 -10 0 12 #fcfcfc #000000 #000000;
#X obj 1598 109 bng 19 250 50 0 empty empty empty 0 -10 0 12 #fcfcfc #000000 #000000;
#X obj 1637 108 tgl 19 0 empty hi_hat14 empty 0 -10 0 12 #fcfcfc #000000 #000000 0 1;
#X obj 1598 142 spigot;
#X obj 1598 179 bng 19 250 50 0 empty empty empty 0 -10 0 12 #fcfcfc #000000 #000000;
#X obj 1675 109 bng 19 250 50 0 empty empty empty 0 -10 0 12 #fcfcfc #000000 #000000;
#X obj 1714 108 tgl 19 0 empty hi_hat15 empty 0 -10 0 12 #fcfcfc #000000 #000000 0 1;
#X obj 1675 142 spigot;
#X obj 1675 180 bng 19 250 50 0 empty empty empty 0 -10 0 12 #fcfcfc #000000 #000000;
#X obj 1749 109 bng 19 250 50 0 empty empty empty 0 -10 0 12 #fcfcfc #000000 #000000;
#X obj 1788 108 tgl 19 0 empty hi_hat16 empty 0 -10 0 12 #ffffff #000000 #000000 0 1;
#X obj 1749 142 spigot;
#X obj 1749 181 bng 19 250 50 0 empty empty empty 0 -10 0 12 #fcfcfc #000000 #000000;
#X obj 1263 79 r Nine;
#X obj 1327 78 r Ten;
#X obj 1391 77 r Eleven;
#X obj 1455 76 r Twelve;
#X obj 1519 76 r Thirteen;
#X obj 1598 76 r Fourteen;
#X obj 1677 76 r Fifteen;
#X obj 1749 76 r Sixteen;
#X obj 750 363 bng 19 250 50 0 empty empty empty 0 -10 0 12 #fcfcfc #000000 #000000;
#X obj 789 362 tgl 19 0 empty snare1 empty 0 -10 0 12 #fcfcfc #000000 #000000 0 1;
#X obj 750 396 spigot;
#X obj 750 428 bng 19 250 50 0 empty empty empty 0 -10 0 12 #fcfcfc #000000 #000000;
#X obj 814 362 bng 19 250 50 0 empty empty empty 0 -10 0 12 #fcfcfc #000000 #000000;
#X obj 853 361 tgl 19 0 empty snare2 empty 0 -10 0 12 #fcfcfc #000000 #000000 0 1;
#X obj 814 395 spigot;
#X obj 814 428 bng 19 250 50 0 empty empty empty 0 -10 0 12 #fcfcfc #000000 #000000;
#X obj 878 361 bng 19 250 50 0 empty empty empty 0 -10 0 12 #fcfcfc #000000 #000000;
#X obj 917 360 tgl 19 0 empty snare3 empty 0 -10 0 12 #fcfcfc #000000 #000000 0 1;
#X obj 878 394 spigot;
#X obj 878 428 bng 19 250 50 0 empty empty empty 0 -10 0 12 #fcfcfc #000000 #000000;
#X obj 942 360 bng 19 250 50 0 empty empty empty 0 -10 0 12 #fcfcfc #000000 #000000;
#X obj 981 359 tgl 19 0 empty snare4 empty 0 -10 0 12 #fcfcfc #000000 #000000 0 1;
#X obj 942 393 spigot;
#X obj 942 428 bng 19 250 50 0 empty empty empty 0 -10 0 12 #fcfcfc #000000 #000000;
#X obj 1006 359 bng 19 250 50 0 empty empty empty 0 -10 0 12 #fcfcfc #000000 #000000;
#X obj 1045 358 tgl 19 0 empty snare5 empty 0 -10 0 12 #fcfcfc #000000 #000000 0 1;
#X obj 1006 392 spigot;
#X obj 1006 428 bng 19 250 50 0 empty empty empty 0 -10 0 12 #fcfcfc #000000 #000000;
#X obj 1070 358 bng 19 250 50 0 empty empty empty 0 -10 0 12 #fcfcfc #000000 #000000;
#X obj 1109 357 tgl 19 0 empty snare6 empty 0 -10 0 12 #fcfcfc #000000 #000000 0 1;
#X obj 1070 391 spigot;
#X obj 1070 427 bng 19 250 50 0 empty empty empty 0 -10 0 12 #fcfcfc #000000 #000000;
#X obj 1134 357 bng 19 250 50 0 empty empty empty 0 -10 0 12 #fcfcfc #000000 #000000;
#X obj 1173 356 tgl 19 0 empty snare7 empty 0 -10 0 12 #fcfcfc #000000 #000000 0 1;
#X obj 1134 390 spigot;
#X obj 1134 426 bng 19 250 50 0 empty empty empty 0 -10 0 12 #fcfcfc #000000 #000000;
#X obj 1198 356 bng 19 250 50 0 empty empty empty 0 -10 0 12 #fcfcfc #000000 #000000;
#X obj 1237 355 tgl 19 0 empty snare8 empty 0 -10 0 12 #fcfcfc #000000 #000000 0 1;
#X obj 1198 389 spigot;
#X obj 1198 425 bng 19 250 50 0 empty empty empty 0 -10 0 12 #fcfcfc #000000 #000000;
#X obj 750 330 r One;
#X obj 814 329 r Two;
#X obj 878 328 r Three;
#X obj 942 327 r Four;
#X obj 1006 327 r Five;
#X obj 1070 325 r Six;
#X obj 1134 324 r Seven;
#X obj 1198 323 r Eight;
#X obj 1262 355 bng 19 250 50 0 empty empty empty 0 -10 0 12 #fcfcfc #000000 #000000;
#X obj 1301 354 tgl 19 0 empty snare9 empty 0 -10 0 12 #fcfcfc #000000 #000000 0 1;
#X obj 1262 388 spigot;
#X obj 1262 423 bng 19 250 50 0 empty empty empty 0 -10 0 12 #fcfcfc #000000 #000000;
#X obj 1326 354 bng 19 250 50 0 empty empty empty 0 -10 0 12 #fcfcfc #000000 #000000;
#X obj 1365 353 tgl 19 0 empty snare10 empty 0 -10 0 12 #fcfcfc #000000 #000000 0 1;
#X obj 1326 387 spigot;
#X obj 1326 422 bng 19 250 50 0 empty empty empty 0 -10 0 12 #fcfcfc #000000 #000000;
#X obj 1390 353 bng 19 250 50 0 empty empty empty 0 -10 0 12 #fcfcfc #000000 #000000;
#X obj 1429 352 tgl 19 0 empty snare11 empty 0 -10 0 12 #fcfcfc #000000 #000000 0 1;
#X obj 1390 386 spigot;
#X obj 1390 420 bng 19 250 50 0 empty empty empty 0 -10 0 12 #fcfcfc #000000 #000000;
#X obj 1454 352 bng 19 250 50 0 empty empty empty 0 -10 0 12 #fcfcfc #000000 #000000;
#X obj 1493 351 tgl 19 0 empty snare12 empty 0 -10 0 12 #fcfcfc #000000 #000000 0 1;
#X obj 1454 385 spigot;
#X obj 1454 420 bng 19 250 50 0 empty empty empty 0 -10 0 12 #fcfcfc #000000 #000000;
#X obj 1518 351 bng 19 250 50 0 empty empty empty 0 -10 0 12 #fcfcfc #000000 #000000;
#X obj 1557 350 tgl 19 0 empty snare13 empty 0 -10 0 12 #fcfcfc #000000 #000000 0 1;
#X obj 1518 384 spigot;
#X obj 1518 420 bng 19 250 50 0 empty empty empty 0 -10 0 12 #fcfcfc #000000 #000000;
#X obj 1597 352 bng 19 250 50 0 empty empty empty 0 -10 0 12 #fcfcfc #000000 #000000;
#X obj 1636 351 tgl 19 0 empty snare14 empty 0 -10 0 12 #fcfcfc #000000 #000000 0 1;
#X obj 1597 385 spigot;
#X obj 1597 422 bng 19 250 50 0 empty empty empty 0 -10 0 12 #fcfcfc #000000 #000000;
#X obj 1674 352 bng 19 250 50 0 empty empty empty 0 -10 0 12 #fcfcfc #000000 #000000;
#X obj 1713 351 tgl 19 0 empty snare15 empty 0 -10 0 12 #fcfcfc #000000 #000000 0 1;
#X obj 1674 385 spigot;
#X obj 1674 423 bng 19 250 50 0 empty empty empty 0 -10 0 12 #fcfcfc #000000 #000000;
#X obj 1748 352 bng 19 250 50 0 empty empty empty 0 -10 0 12 #fcfcfc #000000 #000000;
#X obj 1787 351 tgl 19 0 empty snare16 empty 0 -10 0 12 #fcfcfc #000000 #000000 0 1;
#X obj 1748 385 spigot;
#X obj 1748 424 bng 19 250 50 0 empty empty empty 0 -10 0 12 #fcfcfc #000000 #000000;
#X obj 1262 322 r Nine;
#X obj 1326 321 r Ten;
#X obj 1390 320 r Eleven;
#X obj 1454 319 r Twelve;
#X obj 1518 319 r Thirteen;
#X obj 1597 319 r Fourteen;
#X obj 1676 319 r Fifteen;
#X obj 1748 319 r Sixteen;
#X obj 1239 512 send Snare;
#X obj 749 602 bng 19 250 50 0 empty empty empty 0 -10 0 12 #fcfcfc #000000 #000000;
#X obj 788 601 tgl 19 0 empty cym1 empty 0 -10 0 12 #fcfcfc #000000 #000000 0 1;
#X obj 749 635 spigot;
#X obj 749 667 bng 19 250 50 0 empty empty empty 0 -10 0 12 #fcfcfc #000000 #000000;
#X obj 813 601 bng 19 250 50 0 empty empty empty 0 -10 0 12 #fcfcfc #000000 #000000;
#X obj 852 600 tgl 19 0 empty cym2 empty 0 -10 0 12 #fcfcfc #000000 #000000 0 1;
#X obj 813 634 spigot;
#X obj 813 667 bng 19 250 50 0 empty empty empty 0 -10 0 12 #fcfcfc #000000 #000000;
#X obj 877 600 bng 19 250 50 0 empty empty empty 0 -10 0 12 #fcfcfc #000000 #000000;
#X obj 916 599 tgl 19 0 empty cym3 empty 0 -10 0 12 #fcfcfc #000000 #000000 0 1;
#X obj 877 633 spigot;
#X obj 877 667 bng 19 250 50 0 empty empty empty 0 -10 0 12 #fcfcfc #000000 #000000;
#X obj 941 599 bng 19 250 50 0 empty empty empty 0 -10 0 12 #fcfcfc #000000 #000000;
#X obj 980 598 tgl 19 0 empty cym4 empty 0 -10 0 12 #fcfcfc #000000 #000000 0 1;
#X obj 941 632 spigot;
#X obj 941 667 bng 19 250 50 0 empty empty empty 0 -10 0 12 #fcfcfc #000000 #000000;
#X obj 1005 598 bng 19 250 50 0 empty empty empty 0 -10 0 12 #fcfcfc #000000 #000000;
#X obj 1044 597 tgl 19 0 empty cym5 empty 0 -10 0 12 #fcfcfc #000000 #000000 0 1;
#X obj 1005 631 spigot;
#X obj 1005 667 bng 19 250 50 0 empty empty empty 0 -10 0 12 #fcfcfc #000000 #000000;
#X obj 1069 597 bng 19 250 50 0 empty empty empty 0 -10 0 12 #fcfcfc #000000 #000000;
#X obj 1108 596 tgl 19 0 empty cym6 empty 0 -10 0 12 #fcfcfc #000000 #000000 0 1;
#X obj 1069 630 spigot;
#X obj 1069 666 bng 19 250 50 0 empty empty empty 0 -10 0 12 #fcfcfc #000000 #000000;
#X obj 1133 596 bng 19 250 50 0 empty empty empty 0 -10 0 12 #fcfcfc #000000 #000000;
#X obj 1172 595 tgl 19 0 empty cym7 empty 0 -10 0 12 #fcfcfc #000000 #000000 0 1;
#X obj 1133 629 spigot;
#X obj 1133 665 bng 19 250 50 0 empty empty empty 0 -10 0 12 #fcfcfc #000000 #000000;
#X obj 1197 595 bng 19 250 50 0 empty empty empty 0 -10 0 12 #fcfcfc #000000 #000000;
#X obj 1236 594 tgl 19 0 empty cym8 empty 0 -10 0 12 #fcfcfc #000000 #000000 0 1;
#X obj 1197 628 spigot;
#X obj 1197 664 bng 19 250 50 0 empty empty empty 0 -10 0 12 #fcfcfc #000000 #000000;
#X obj 749 569 r One;
#X obj 813 568 r Two;
#X obj 877 567 r Three;
#X obj 941 566 r Four;
#X obj 1005 566 r Five;
#X obj 1069 564 r Six;
#X obj 1133 563 r Seven;
#X obj 1197 562 r Eight;
#X obj 1261 594 bng 19 250 50 0 empty empty empty 0 -10 0 12 #fcfcfc #000000 #000000;
#X obj 1300 593 tgl 19 0 empty cym9 empty 0 -10 0 12 #fcfcfc #000000 #000000 0 1;
#X obj 1261 627 spigot;
#X obj 1261 662 bng 19 250 50 0 empty empty empty 0 -10 0 12 #fcfcfc #000000 #000000;
#X obj 1325 593 bng 19 250 50 0 empty empty empty 0 -10 0 12 #fcfcfc #000000 #000000;
#X obj 1364 592 tgl 19 0 empty cym10 empty 0 -10 0 12 #fcfcfc #000000 #000000 0 1;
#X obj 1325 626 spigot;
#X obj 1325 661 bng 19 250 50 0 empty empty empty 0 -10 0 12 #fcfcfc #000000 #000000;
#X obj 1389 592 bng 19 250 50 0 empty empty empty 0 -10 0 12 #fcfcfc #000000 #000000;
#X obj 1428 591 tgl 19 0 empty cym11 empty 0 -10 0 12 #fcfcfc #000000 #000000 0 1;
#X obj 1389 625 spigot;
#X obj 1389 659 bng 19 250 50 0 empty empty empty 0 -10 0 12 #fcfcfc #000000 #000000;
#X obj 1453 591 bng 19 250 50 0 empty empty empty 0 -10 0 12 #fcfcfc #000000 #000000;
#X obj 1492 590 tgl 19 0 empty cym12 empty 0 -10 0 12 #fcfcfc #000000 #000000 0 1;
#X obj 1453 624 spigot;
#X obj 1453 659 bng 19 250 50 0 empty empty empty 0 -10 0 12 #fcfcfc #000000 #000000;
#X obj 1517 590 bng 19 250 50 0 empty empty empty 0 -10 0 12 #fcfcfc #000000 #000000;
#X obj 1556 589 tgl 19 0 empty cym13 empty 0 -10 0 12 #fcfcfc #000000 #000000 0 1;
#X obj 1517 623 spigot;
#X obj 1517 659 bng 19 250 50 0 empty empty empty 0 -10 0 12 #fcfcfc #000000 #000000;
#X obj 1596 591 bng 19 250 50 0 empty empty empty 0 -10 0 12 #fcfcfc #000000 #000000;
#X obj 1635 590 tgl 19 0 empty cym14 empty 0 -10 0 12 #fcfcfc #000000 #000000 0 1;
#X obj 1596 624 spigot;
#X obj 1596 661 bng 19 250 50 0 empty empty empty 0 -10 0 12 #fcfcfc #000000 #000000;
#X obj 1673 591 bng 19 250 50 0 empty empty empty 0 -10 0 12 #fcfcfc #000000 #000000;
#X obj 1712 590 tgl 19 0 empty cym15 empty 0 -10 0 12 #fcfcfc #000000 #000000 0 1;
#X obj 1673 624 spigot;
#X obj 1673 662 bng 19 250 50 0 empty empty empty 0 -10 0 12 #fcfcfc #000000 #000000;
#X obj 1747 591 bng 19 250 50 0 empty empty empty 0 -10 0 12 #fcfcfc #000000 #000000;
#X obj 1786 590 tgl 19 0 empty cym16 empty 0 -10 0 12 #fcfcfc #000000 #000000 0 1;
#X obj 1747 624 spigot;
#X obj 1747 663 bng 19 250 50 0 empty empty empty 0 -10 0 12 #fcfcfc #000000 #000000;
#X obj 1261 561 r Nine;
#X obj 1325 560 r Ten;
#X obj 1389 559 r Eleven;
#X obj 1453 558 r Twelve;
#X obj 1517 558 r Thirteen;
#X obj 1596 558 r Fourteen;
#X obj 1675 558 r Fifteen;
#X obj 1747 558 r Sixteen;
#X obj 1238 751 send Cymbal;
#X obj 746 850 bng 19 250 50 0 empty empty empty 0 -10 0 12 #fcfcfc #000000 #000000;
#X obj 785 849 tgl 19 0 empty kick1 empty 0 -10 0 12 #fcfcfc #000000 #000000 0 1;
#X obj 746 883 spigot;
#X obj 746 915 bng 19 250 50 0 empty empty empty 0 -10 0 12 #fcfcfc #000000 #000000;
#X obj 810 849 bng 19 250 50 0 empty empty empty 0 -10 0 12 #fcfcfc #000000 #000000;
#X obj 849 848 tgl 19 0 empty kick2 empty 0 -10 0 12 #fcfcfc #000000 #000000 0 1;
#X obj 810 882 spigot;
#X obj 810 915 bng 19 250 50 0 empty empty empty 0 -10 0 12 #fcfcfc #000000 #000000;
#X obj 874 848 bng 19 250 50 0 empty empty empty 0 -10 0 12 #fcfcfc #000000 #000000;
#X obj 913 847 tgl 19 0 empty kick3 empty 0 -10 0 12 #fcfcfc #000000 #000000 0 1;
#X obj 874 881 spigot;
#X obj 874 915 bng 19 250 50 0 empty empty empty 0 -10 0 12 #fcfcfc #000000 #000000;
#X obj 938 847 bng 19 250 50 0 empty empty empty 0 -10 0 12 #fcfcfc #000000 #000000;
#X obj 977 846 tgl 19 0 empty kick4 empty 0 -10 0 12 #fcfcfc #000000 #000000 0 1;
#X obj 938 880 spigot;
#X obj 938 915 bng 19 250 50 0 empty empty empty 0 -10 0 12 #fcfcfc #000000 #000000;
#X obj 1002 846 bng 19 250 50 0 empty empty empty 0 -10 0 12 #fcfcfc #000000 #000000;
#X obj 1041 845 tgl 19 0 empty kick5 empty 0 -10 0 12 #fcfcfc #000000 #000000 0 1;
#X obj 1002 879 spigot;
#X obj 1002 915 bng 19 250 50 0 empty empty empty 0 -10 0 12 #fcfcfc #000000 #000000;
#X obj 1066 845 bng 19 250 50 0 empty empty empty 0 -10 0 12 #fcfcfc #000000 #000000;
#X obj 1105 844 tgl 19 0 empty kick6 empty 0 -10 0 12 #fcfcfc #000000 #000000 0 1;
#X obj 1066 878 spigot;
#X obj 1066 914 bng 19 250 50 0 empty empty empty 0 -10 0 12 #fcfcfc #000000 #000000;
#X obj 1130 844 bng 19 250 50 0 empty empty empty 0 -10 0 12 #fcfcfc #000000 #000000;
#X obj 1169 843 tgl 19 0 empty kick7 empty 0 -10 0 12 #fcfcfc #000000 #000000 0 1;
#X obj 1130 877 spigot;
#X obj 1130 913 bng 19 250 50 0 empty empty empty 0 -10 0 12 #fcfcfc #000000 #000000;
#X obj 1194 843 bng 19 250 50 0 empty empty empty 0 -10 0 12 #fcfcfc #000000 #000000;
#X obj 1233 842 tgl 19 0 empty kick8 empty 0 -10 0 12 #fcfcfc #000000 #000000 0 1;
#X obj 1194 876 spigot;
#X obj 1194 912 bng 19 250 50 0 empty empty empty 0 -10 0 12 #fcfcfc #000000 #000000;
#X obj 746 817 r One;
#X obj 810 816 r Two;
#X obj 874 815 r Three;
#X obj 938 814 r Four;
#X obj 1002 814 r Five;
#X obj 1066 812 r Six;
#X obj 1130 811 r Seven;
#X obj 1194 810 r Eight;
#X obj 1258 842 bng 19 250 50 0 empty empty empty 0 -10 0 12 #fcfcfc #000000 #000000;
#X obj 1297 841 tgl 19 0 empty kick9 empty 0 -10 0 12 #fcfcfc #000000 #000000 0 1;
#X obj 1258 875 spigot;
#X obj 1258 910 bng 19 250 50 0 empty empty empty 0 -10 0 12 #fcfcfc #000000 #000000;
#X obj 1322 841 bng 19 250 50 0 empty empty empty 0 -10 0 12 #fcfcfc #000000 #000000;
#X obj 1361 840 tgl 19 0 empty kick10 empty 0 -10 0 12 #fcfcfc #000000 #000000 0 1;
#X obj 1322 874 spigot;
#X obj 1322 909 bng 19 250 50 0 empty empty empty 0 -10 0 12 #fcfcfc #000000 #000000;
#X obj 1386 840 bng 19 250 50 0 empty empty empty 0 -10 0 12 #fcfcfc #000000 #000000;
#X obj 1425 839 tgl 19 0 empty kick11 empty 0 -10 0 12 #fcfcfc #000000 #000000 0 1;
#X obj 1386 873 spigot;
#X obj 1386 907 bng 19 250 50 0 empty empty empty 0 -10 0 12 #fcfcfc #000000 #000000;
#X obj 1450 839 bng 19 250 50 0 empty empty empty 0 -10 0 12 #fcfcfc #000000 #000000;
#X obj 1489 838 tgl 19 0 empty kick12 empty 0 -10 0 12 #fcfcfc #000000 #000000 0 1;
#X obj 1450 872 spigot;
#X obj 1450 907 bng 19 250 50 0 empty empty empty 0 -10 0 12 #fcfcfc #000000 #000000;
#X obj 1514 838 bng 19 250 50 0 empty empty empty 0 -10 0 12 #fcfcfc #000000 #000000;
#X obj 1553 837 tgl 19 0 empty kick13 empty 0 -10 0 12 #fcfcfc #000000 #000000 0 1;
#X obj 1514 871 spigot;
#X obj 1514 907 bng 19 250 50 0 empty empty empty 0 -10 0 12 #fcfcfc #000000 #000000;
#X obj 1593 839 bng 19 250 50 0 empty empty empty 0 -10 0 12 #fcfcfc #000000 #000000;
#X obj 1632 838 tgl 19 0 empty kick14 empty 0 -10 0 12 #fcfcfc #000000 #000000 0 1;
#X obj 1593 872 spigot;
#X obj 1593 909 bng 19 250 50 0 empty empty empty 0 -10 0 12 #fcfcfc #000000 #000000;
#X obj 1670 839 bng 19 250 50 0 empty empty empty 0 -10 0 12 #fcfcfc #000000 #000000;
#X obj 1709 838 tgl 19 0 empty kick15 empty 0 -10 0 12 #fcfcfc #000000 #000000 0 1;
#X obj 1670 872 spigot;
#X obj 1670 910 bng 19 250 50 0 empty empty empty 0 -10 0 12 #fcfcfc #000000 #000000;
#X obj 1744 839 bng 19 250 50 0 empty empty empty 0 -10 0 12 #fcfcfc #000000 #000000;
#X obj 1783 838 tgl 19 0 empty kick16 empty 0 -10 0 12 #fcfcfc #000000 #000000 0 1;
#X obj 1744 872 spigot;
#X obj 1744 911 bng 19 250 50 0 empty empty empty 0 -10 0 12 #fcfcfc #000000 #000000;
#X obj 1258 809 r Nine;
#X obj 1322 808 r Ten;
#X obj 1386 807 r Eleven;
#X obj 1450 806 r Twelve;
#X obj 1514 806 r Thirteen;
#X obj 1593 806 r Fourteen;
#X obj 1672 806 r Fifteen;
#X obj 1744 806 r Sixteen;
#X obj 1235 999 send Kick;
#X obj 162 303 s drum_machine_steps;
#X obj 271 663 receive 4_bars;
#X obj 271 718 readsf~;
#X obj 271 746 *~ 0.6;
#X obj 602 178 drums_GUI;
#X msg 395 802 open samples/cymbal.wav \, 1;
#X msg 331 746 open samples/hi-hat.wav \, 1;
#X msg 151 582 open samples/kick.wav \, 1;
#X msg 211 635 open samples/snare.wav \, 1;
#X msg 271 690 open samples/crash.wav \, 2;
#X obj 149 986 send~ Drums;
#X obj 245 968 tabwrite~ drums_waveform;
#X obj 150 950 *~ 1;
#X obj 245 937 r waveform_clock;
#X obj 99 35 r p_PLAY_s;
#X obj 155 74 r 1/16_note;
#X obj 395 856 *~ 0.55;
#X obj 212 691 *~ 1.8;
#X obj 151 637 *~ 1.25;
#X text 184 35 Receive ON signal;
#X text 458 48 Drums;
#X obj 601 150 drum_sequencer;
#X text 387 100 This patch controls the activation and sequencing of the drum elements. A 16-step sequence is counted and set up for each drum part \, with the sequence instructions being sent from drum_sequencer to the drums_GUI., f 25;
#X text 386 263 Created by George Caselton;
#X text 396 286 Last updated: 10/08/2024;
#X text 610 121 Sub-patches;
#X text 198 278 Current step;
#X text 418 629 This section loads the relevant sample when signalled, f 26;
#X text 92 987 OUTPUT;
#X text 1156 34 16-step sequencers for each drum part;
#X connect 0 0 2 0;
#X connect 1 0 2 0;
#X connect 2 0 3 0;
#X connect 3 0 5 0;
#X connect 4 0 5 0;
#X connect 5 0 6 0;
#X connect 5 0 7 0;
#X connect 6 0 5 1;
#X connect 7 0 69 0;
#X connect 8 0 9 0;
#X connect 9 0 70 0;
#X connect 9 0 378 0;
#X connect 10 0 11 0;
#X connect 12 0 13 0;
#X connect 14 0 15 0;
#X connect 16 0 17 0;
#X connect 18 0 19 0;
#X connect 20 0 21 0;
#X connect 22 0 23 0;
#X connect 24 0 25 0;
#X connect 26 0 28 0;
#X connect 27 0 28 1;
#X connect 28 0 29 0;
#X connect 29 0 58 0;
#X connect 30 0 32 0;
#X connect 31 0 32 1;
#X connect 32 0 33 0;
#X connect 33 0 58 0;
#X connect 34 0 36 0;
#X connect 35 0 36 1;
#X connect 36 0 37 0;
#X connect 37 0 58 0;
#X connect 38 0 40 0;
#X connect 39 0 40 1;
#X connect 40 0 41 0;
#X connect 41 0 58 0;
#X connect 42 0 44 0;
#X connect 43 0 44 1;
#X connect 44 0 45 0;
#X connect 45 0 58 0;
#X connect 46 0 48 0;
#X connect 47 0 48 1;
#X connect 48 0 49 0;
#X connect 49 0 58 0;
#X connect 50 0 52 0;
#X connect 51 0 52 1;
#X connect 52 0 53 0;
#X connect 53 0 58 0;
#X connect 54 0 56 0;
#X connect 55 0 56 1;
#X connect 56 0 57 0;
#X connect 57 0 58 0;
#X connect 59 0 383 0;
#X connect 60 0 394 0;
#X connect 61 0 62 0;
#X connect 62 0 390 0;
#X connect 63 0 384 0;
#X connect 64 0 396 0;
#X connect 65 0 385 0;
#X connect 66 0 395 0;
#X connect 67 0 386 0;
#X connect 69 0 8 0;
#X connect 70 0 10 0;
#X connect 70 1 12 0;
#X connect 70 2 14 0;
#X connect 70 3 16 0;
#X connect 70 4 18 0;
#X connect 70 5 20 0;
#X connect 70 6 22 0;
#X connect 70 7 24 0;
#X connect 70 8 71 0;
#X connect 70 9 72 0;
#X connect 70 10 73 0;
#X connect 70 11 74 0;
#X connect 70 12 75 0;
#X connect 70 13 76 0;
#X connect 70 14 77 0;
#X connect 70 15 78 0;
#X connect 71 0 79 0;
#X connect 72 0 80 0;
#X connect 73 0 81 0;
#X connect 74 0 82 0;
#X connect 75 0 83 0;
#X connect 76 0 84 0;
#X connect 77 0 85 0;
#X connect 78 0 86 0;
#X connect 87 0 26 0;
#X connect 88 0 30 0;
#X connect 89 0 34 0;
#X connect 90 0 38 0;
#X connect 91 0 42 0;
#X connect 92 0 46 0;
#X connect 93 0 50 0;
#X connect 94 0 54 0;
#X connect 95 0 97 0;
#X connect 96 0 97 1;
#X connect 97 0 98 0;
#X connect 98 0 58 0;
#X connect 99 0 101 0;
#X connect 100 0 101 1;
#X connect 101 0 102 0;
#X connect 102 0 58 0;
#X connect 103 0 105 0;
#X connect 104 0 105 1;
#X connect 105 0 106 0;
#X connect 106 0 58 0;
#X connect 107 0 109 0;
#X connect 108 0 109 1;
#X connect 109 0 110 0;
#X connect 110 0 58 0;
#X connect 111 0 113 0;
#X connect 112 0 113 1;
#X connect 113 0 114 0;
#X connect 114 0 58 0;
#X connect 115 0 117 0;
#X connect 116 0 117 1;
#X connect 117 0 118 0;
#X connect 118 0 58 0;
#X connect 119 0 121 0;
#X connect 120 0 121 1;
#X connect 121 0 122 0;
#X connect 122 0 58 0;
#X connect 123 0 125 0;
#X connect 124 0 125 1;
#X connect 125 0 126 0;
#X connect 126 0 58 0;
#X connect 127 0 95 0;
#X connect 128 0 99 0;
#X connect 129 0 103 0;
#X connect 130 0 107 0;
#X connect 131 0 111 0;
#X connect 132 0 115 0;
#X connect 133 0 119 0;
#X connect 134 0 123 0;
#X connect 135 0 137 0;
#X connect 136 0 137 1;
#X connect 137 0 138 0;
#X connect 138 0 215 0;
#X connect 139 0 141 0;
#X connect 140 0 141 1;
#X connect 141 0 142 0;
#X connect 142 0 215 0;
#X connect 143 0 145 0;
#X connect 144 0 145 1;
#X connect 145 0 146 0;
#X connect 146 0 215 0;
#X connect 147 0 149 0;
#X connect 148 0 149 1;
#X connect 149 0 150 0;
#X connect 150 0 215 0;
#X connect 151 0 153 0;
#X connect 152 0 153 1;
#X connect 153 0 154 0;
#X connect 154 0 215 0;
#X connect 155 0 157 0;
#X connect 156 0 157 1;
#X connect 157 0 158 0;
#X connect 158 0 215 0;
#X connect 159 0 161 0;
#X connect 160 0 161 1;
#X connect 161 0 162 0;
#X connect 162 0 215 0;
#X connect 163 0 165 0;
#X connect 164 0 165 1;
#X connect 165 0 166 0;
#X connect 166 0 215 0;
#X connect 167 0 135 0;
#X connect 168 0 139 0;
#X connect 169 0 143 0;
#X connect 170 0 147 0;
#X connect 171 0 151 0;
#X connect 172 0 155 0;
#X connect 173 0 159 0;
#X connect 174 0 163 0;
#X connect 175 0 177 0;
#X connect 176 0 177 1;
#X connect 177 0 178 0;
#X connect 178 0 215 0;
#X connect 179 0 181 0;
#X connect 180 0 181 1;
#X connect 181 0 182 0;
#X connect 182 0 215 0;
#X connect 183 0 185 0;
#X connect 184 0 185 1;
#X connect 185 0 186 0;
#X connect 186 0 215 0;
#X connect 187 0 189 0;
#X connect 188 0 189 1;
#X connect 189 0 190 0;
#X connect 190 0 215 0;
#X connect 191 0 193 0;
#X connect 192 0 193 1;
#X connect 193 0 194 0;
#X connect 194 0 215 0;
#X connect 195 0 197 0;
#X connect 196 0 197 1;
#X connect 197 0 198 0;
#X connect 198 0 215 0;
#X connect 199 0 201 0;
#X connect 200 0 201 1;
#X connect 201 0 202 0;
#X connect 202 0 215 0;
#X connect 203 0 205 0;
#X connect 204 0 205 1;
#X connect 205 0 206 0;
#X connect 206 0 215 0;
#X connect 207 0 175 0;
#X connect 208 0 179 0;
#X connect 209 0 183 0;
#X connect 210 0 187 0;
#X connect 211 0 191 0;
#X connect 212 0 195 0;
#X connect 213 0 199 0;
#X connect 214 0 203 0;
#X connect 216 0 218 0;
#X connect 217 0 218 1;
#X connect 218 0 219 0;
#X connect 219 0 296 0;
#X connect 220 0 222 0;
#X connect 221 0 222 1;
#X connect 222 0 223 0;
#X connect 223 0 296 0;
#X connect 224 0 226 0;
#X connect 225 0 226 1;
#X connect 226 0 227 0;
#X connect 227 0 296 0;
#X connect 228 0 230 0;
#X connect 229 0 230 1;
#X connect 230 0 231 0;
#X connect 231 0 296 0;
#X connect 232 0 234 0;
#X connect 233 0 234 1;
#X connect 234 0 235 0;
#X connect 235 0 296 0;
#X connect 236 0 238 0;
#X connect 237 0 238 1;
#X connect 238 0 239 0;
#X connect 239 0 296 0;
#X connect 240 0 242 0;
#X connect 241 0 242 1;
#X connect 242 0 243 0;
#X connect 243 0 296 0;
#X connect 244 0 246 0;
#X connect 245 0 246 1;
#X connect 246 0 247 0;
#X connect 247 0 296 0;
#X connect 248 0 216 0;
#X connect 249 0 220 0;
#X connect 250 0 224 0;
#X connect 251 0 228 0;
#X connect 252 0 232 0;
#X connect 253 0 236 0;
#X connect 254 0 240 0;
#X connect 255 0 244 0;
#X connect 256 0 258 0;
#X connect 257 0 258 1;
#X connect 258 0 259 0;
#X connect 259 0 296 0;
#X connect 260 0 262 0;
#X connect 261 0 262 1;
#X connect 262 0 263 0;
#X connect 263 0 296 0;
#X connect 264 0 266 0;
#X connect 265 0 266 1;
#X connect 266 0 267 0;
#X connect 267 0 296 0;
#X connect 268 0 270 0;
#X connect 269 0 270 1;
#X connect 270 0 271 0;
#X connect 271 0 296 0;
#X connect 272 0 274 0;
#X connect 273 0 274 1;
#X connect 274 0 275 0;
#X connect 275 0 296 0;
#X connect 276 0 278 0;
#X connect 277 0 278 1;
#X connect 278 0 279 0;
#X connect 279 0 296 0;
#X connect 280 0 282 0;
#X connect 281 0 282 1;
#X connect 282 0 283 0;
#X connect 283 0 296 0;
#X connect 284 0 286 0;
#X connect 285 0 286 1;
#X connect 286 0 287 0;
#X connect 287 0 296 0;
#X connect 288 0 256 0;
#X connect 289 0 260 0;
#X connect 290 0 264 0;
#X connect 291 0 268 0;
#X connect 292 0 272 0;
#X connect 293 0 276 0;
#X connect 294 0 280 0;
#X connect 295 0 284 0;
#X connect 297 0 299 0;
#X connect 298 0 299 1;
#X connect 299 0 300 0;
#X connect 300 0 377 0;
#X connect 301 0 303 0;
#X connect 302 0 303 1;
#X connect 303 0 304 0;
#X connect 304 0 377 0;
#X connect 305 0 307 0;
#X connect 306 0 307 1;
#X connect 307 0 308 0;
#X connect 308 0 377 0;
#X connect 309 0 311 0;
#X connect 310 0 311 1;
#X connect 311 0 312 0;
#X connect 312 0 377 0;
#X connect 313 0 315 0;
#X connect 314 0 315 1;
#X connect 315 0 316 0;
#X connect 316 0 377 0;
#X connect 317 0 319 0;
#X connect 318 0 319 1;
#X connect 319 0 320 0;
#X connect 320 0 377 0;
#X connect 321 0 323 0;
#X connect 322 0 323 1;
#X connect 323 0 324 0;
#X connect 324 0 377 0;
#X connect 325 0 327 0;
#X connect 326 0 327 1;
#X connect 327 0 328 0;
#X connect 328 0 377 0;
#X connect 329 0 297 0;
#X connect 330 0 301 0;
#X connect 331 0 305 0;
#X connect 332 0 309 0;
#X connect 333 0 313 0;
#X connect 334 0 317 0;
#X connect 335 0 321 0;
#X connect 336 0 325 0;
#X connect 337 0 339 0;
#X connect 338 0 339 1;
#X connect 339 0 340 0;
#X connect 340 0 377 0;
#X connect 341 0 343 0;
#X connect 342 0 343 1;
#X connect 343 0 344 0;
#X connect 344 0 377 0;
#X connect 345 0 347 0;
#X connect 346 0 347 1;
#X connect 347 0 348 0;
#X connect 348 0 377 0;
#X connect 349 0 351 0;
#X connect 350 0 351 1;
#X connect 351 0 352 0;
#X connect 352 0 377 0;
#X connect 353 0 355 0;
#X connect 354 0 355 1;
#X connect 355 0 356 0;
#X connect 356 0 377 0;
#X connect 357 0 359 0;
#X connect 358 0 359 1;
#X connect 359 0 360 0;
#X connect 360 0 377 0;
#X connect 361 0 363 0;
#X connect 362 0 363 1;
#X connect 363 0 364 0;
#X connect 364 0 377 0;
#X connect 365 0 367 0;
#X connect 366 0 367 1;
#X connect 367 0 368 0;
#X connect 368 0 377 0;
#X connect 369 0 337 0;
#X connect 370 0 341 0;
#X connect 371 0 345 0;
#X connect 372 0 349 0;
#X connect 373 0 353 0;
#X connect 374 0 357 0;
#X connect 375 0 361 0;
#X connect 376 0 365 0;
#X connect 379 0 387 0;
#X connect 380 0 381 0;
#X connect 381 0 390 0;
#X connect 383 0 60 0;
#X connect 384 0 61 0;
#X connect 385 0 64 0;
#X connect 386 0 66 0;
#X connect 387 0 380 0;
#X connect 390 0 389 0;
#X connect 390 0 388 0;
#X connect 391 0 389 0;
#X connect 392 0 1 0;
#X connect 393 0 4 0;
#X connect 394 0 390 0;
#X connect 395 0 390 0;
#X connect 396 0 390 0;
