#N canvas 2895 281 591 551 12;
#X obj 119 123 tgl 19 0 hi_hat1 i5 Hi-Hat 0 -10 0 12 #c6ffc7 #000000 #000000 0 1;
#X obj 142 123 tgl 19 0 hi_hat2 i2 empty 0 -10 0 12 #c6ffc7 #000000 #000000 0 1;
#X obj 165 123 tgl 19 0 hi_hat3 i1 empty 0 -10 0 12 #c6ffc7 #000000 #000000 0 1;
#X obj 188 123 tgl 19 0 hi_hat4 i2 empty 0 -10 0 12 #c6ffc7 #000000 #000000 0 1;
#X obj 211 123 tgl 19 0 hi_hat5 i5 empty 0 -10 0 12 #c6ffc7 #000000 #000000 0 1;
#X obj 234 123 tgl 19 0 hi_hat6 i5 empty 0 -10 0 12 #c6ffc7 #000000 #000000 0 1;
#X obj 257 123 tgl 19 0 hi_hat7 i1 empty 0 -10 0 12 #c6ffc7 #000000 #000000 0 1;
#X obj 280 123 tgl 19 0 hi_hat8 i5 empty 0 -10 0 12 #c6ffc7 #000000 #000000 0 1;
#X obj 303 123 tgl 19 0 hi_hat9 i5 empty 0 -10 0 12 #c6ffc7 #000000 #000000 0 1;
#X obj 326 123 tgl 19 0 hi_hat10 i5 empty 0 -10 0 12 #c6ffc7 #000000 #000000 0 1;
#X obj 349 123 tgl 19 0 hi_hat11 i1 empty 0 -10 0 12 #c6ffc7 #000000 #000000 0 1;
#X obj 372 123 tgl 19 0 hi_hat12 i5 empty 0 -10 0 12 #c6ffc7 #000000 #000000 0 1;
#X obj 395 123 tgl 19 0 hi_hat13 i5 empty 0 -10 0 12 #c6ffc7 #000000 #000000 0 1;
#X obj 418 123 tgl 19 0 hi_hat14 i2 empty 0 -10 0 12 #c6ffc7 #000000 #000000 0 1;
#X obj 441 123 tgl 19 0 hi_hat15 i1 empty 0 -10 0 12 #c6ffc7 #000000 #000000 0 1;
#X obj 464 123 tgl 19 0 hi_hat16 i2 empty 0 -10 0 12 #c6ffc7 #000000 #000000 0 1;
#X obj 119 163 tgl 19 0 snare1 empty Snare 0 -10 0 12 #c6ffc7 #000000 #000000 0 1;
#X obj 142 163 tgl 19 0 snare2 i7 empty 0 -10 0 12 #c6ffc7 #000000 #000000 0 1;
#X obj 165 163 tgl 19 0 snare3 empty empty 0 -10 0 12 #c6ffc7 #000000 #000000 0 1;
#X obj 188 163 tgl 19 0 snare4 empty empty 0 -10 0 12 #c6ffc7 #000000 #000000 0 1;
#X obj 211 163 tgl 19 0 snare5 i4 empty 0 -10 0 12 #c6ffc7 #000000 #000000 0 1;
#X obj 234 163 tgl 19 0 snare6 empty empty 0 -10 0 12 #c6ffc7 #000000 #000000 0 1;
#X obj 257 163 tgl 19 0 snare7 i7 empty 0 -10 0 12 #c6ffc7 #000000 #000000 0 1;
#X obj 280 163 tgl 19 0 snare8 empty empty 0 -10 0 12 #c6ffc7 #000000 #000000 0 1;
#X obj 303 163 tgl 19 0 snare9 empty empty 0 -10 0 12 #c6ffc7 #000000 #000000 0 1;
#X obj 326 163 tgl 19 0 snare10 i7 empty 0 -10 0 12 #c6ffc7 #000000 #000000 0 1;
#X obj 349 163 tgl 19 0 snare11 empty empty 0 -10 0 12 #c6ffc7 #000000 #000000 0 1;
#X obj 372 163 tgl 19 0 snare12 empty empty 0 -10 0 12 #c6ffc7 #000000 #000000 0 1;
#X obj 395 163 tgl 19 0 snare13 i4 empty 0 -10 0 12 #c6ffc7 #000000 #000000 0 1;
#X obj 418 163 tgl 19 0 snare14 empty empty 0 -10 0 12 #c6ffc7 #000000 #000000 0 1;
#X obj 441 163 tgl 19 0 snare15 i7 empty 0 -10 0 12 #c6ffc7 #000000 #000000 0 1;
#X obj 464 163 tgl 19 0 snare16 i7 empty 0 -10 0 12 #c6ffc7 #000000 #000000 0 1;
#X obj 119 204 tgl 19 0 cym1 i6 Cymbal 0 -10 0 12 #c6ffc7 #000000 #000000 0 1;
#X obj 142 204 tgl 19 0 cym2 i9 empty 0 -10 0 12 #c6ffc7 #000000 #000000 0 1;
#X obj 165 204 tgl 19 0 cym3 i3 empty 0 -10 0 12 #c6ffc7 #000000 #000000 0 1;
#X obj 188 204 tgl 19 0 cym4 i9 empty 0 -10 0 12 #c6ffc7 #000000 #000000 0 1;
#X obj 211 204 tgl 19 0 cym5 i9 empty 0 -10 0 12 #c6ffc7 #000000 #000000 0 1;
#X obj 234 204 tgl 19 0 cym6 i6 empty 0 -10 0 12 #c6ffc7 #000000 #000000 0 1;
#X obj 257 204 tgl 19 0 cym7 i3 empty 0 -10 0 12 #c6ffc7 #000000 #000000 0 1;
#X obj 280 204 tgl 19 0 cym8 i9 empty 0 -10 0 12 #c6ffc7 #000000 #000000 0 1;
#X obj 303 204 tgl 19 0 cym9 i6 empty 0 -10 0 12 #c6ffc7 #000000 #000000 0 1;
#X obj 326 204 tgl 19 0 cym10 i9 empty 0 -10 0 12 #c6ffc7 #000000 #000000 0 1;
#X obj 349 204 tgl 19 0 cym11 i3 empty 0 -10 0 12 #c6ffc7 #000000 #000000 0 1;
#X obj 372 204 tgl 19 0 cym12 i6 empty 0 -10 0 12 #c6ffc7 #000000 #000000 0 1;
#X obj 395 204 tgl 19 0 cym13 i9 empty 0 -10 0 12 #c6ffc7 #000000 #000000 0 1;
#X obj 418 204 tgl 19 0 cym14 i9 empty 0 -10 0 12 #c6ffc7 #000000 #000000 0 1;
#X obj 441 204 tgl 19 0 cym15 i3 empty 0 -10 0 12 #c6ffc7 #000000 #000000 0 1;
#X obj 464 204 tgl 19 0 cym16 i9 empty 0 -10 0 12 #c6ffc7 #000000 #000000 0 1;
#X obj 119 245 tgl 19 0 kick1 p_PLAY_s Kick 0 -10 0 12 #c6ffc7 #000000 #000000 0 1;
#X obj 142 245 tgl 19 0 kick2 i9 empty 0 -10 0 12 #c6ffc7 #000000 #000000 0 1;
#X obj 165 245 tgl 19 0 kick3 i8 empty 0 -10 0 12 #c6ffc7 #000000 #000000 0 1;
#X obj 188 245 tgl 19 0 kick4 i9 empty 0 -10 0 12 #c6ffc7 #000000 #000000 0 1;
#X obj 211 245 tgl 19 0 kick5 p_PLAY_s empty 0 -10 0 12 #c6ffc7 #000000 #000000 0 1;
#X obj 234 245 tgl 19 0 kick6 i9 empty 0 -10 0 12 #c6ffc7 #000000 #000000 0 1;
#X obj 257 245 tgl 19 0 kick7 i8 empty 0 -10 0 12 #c6ffc7 #000000 #000000 0 1;
#X obj 280 245 tgl 19 0 kick8 i9 empty 0 -10 0 12 #c6ffc7 #000000 #000000 0 1;
#X obj 303 245 tgl 19 0 kick9 p_PLAY_s empty 0 -10 0 12 #c6ffc7 #000000 #000000 0 1;
#X obj 326 245 tgl 19 0 kick10 i9 empty 0 -10 0 12 #c6ffc7 #000000 #000000 0 1;
#X obj 349 245 tgl 19 0 kick11 i8 empty 0 -10 0 12 #c6ffc7 #000000 #000000 0 1;
#X obj 372 245 tgl 19 0 kick12 i9 empty 0 -10 0 12 #c6ffc7 #000000 #000000 0 1;
#X obj 395 245 tgl 19 0 kick13 p_PLAY_s empty 0 -10 0 12 #c6ffc7 #000000 #000000 0 1;
#X obj 418 245 tgl 19 0 kick14 i9 empty 0 -10 0 12 #c6ffc7 #000000 #000000 0 1;
#X obj 441 245 tgl 19 0 kick15 i8 empty 0 -10 0 12 #c6ffc7 #000000 #000000 0 1;
#X obj 464 245 tgl 19 0 kick16 i9 empty 0 -10 0 12 #c6ffc7 #000000 #000000 0 1;
#X obj 117 79 hradio 23 1 0 16 empty drum_machine_steps empty 0 -10 0 12 #ffc7c6 #000000 #000000 0;
#X text 267 25 Drums GUI;
#X text 145 311 This patch allows you to see what the drum patterns are doing in a cleaner \, simplified user interface. You can click on any of the buttons to turn each drum part on or off., f 44;
#X text 203 395 Created by George Caselton;
#X text 212 422 Last updated: 18/08/2024;
