#N canvas 3056 158 783 861 12;
#X obj 293 592 tgl 16 0 i2 empty empty 10 -8 0 10 #fcfcfc #000000 #000000 0 1;
#X obj 395 593 tgl 16 0 i7 empty empty 0 -8 0 10 #fcfcfc #000000 #000000 0 1;
#X obj 408 105 r counter;
#X floatatom 408 133 5 0 0 0 - - - 0;
#X obj 202 131 r p_PLAY_s;
#X obj 202 154 sel 0;
#X obj 376 486 sel 1;
#X obj 332 348 r 1/8_note;
#X obj 332 373 bng 16 250 50 0 empty empty empty 0 -8 0 10 #fcfcfc #000000 #000000;
#X msg 376 509 1;
#X msg 406 509 0;
#X obj 376 462 <;
#X floatatom 560 444 5 0 100 0 - - - 0;
#X obj 560 388 r init;
#X text 592 414 Default probability;
#X text 406 464 Adds extra claps with ^ this much probability;
#X obj 376 418 random 100;
#X floatatom 376 439 5 0 0 0 - - - 0;
#X obj 395 564 spigot;
#X obj 434 540 tgl 16 0 empty extra_claps empty 0 -8 0 10 #fcfcfc #000000 #000000 0 1;
#X msg 471 193 \; extra_claps 1 \;;
#X msg 439 229 \; i3 1 \; i4 1 \;;
#X obj 408 160 sel 64 128 192;
#X obj 293 486 sel 1;
#X msg 293 509 1;
#X msg 323 509 0;
#X obj 293 462 <;
#X floatatom 219 444 5 0 100 0 - - - 0;
#X obj 293 418 random 100;
#X floatatom 293 439 5 0 0 0 - - - 0;
#X obj 293 559 spigot;
#X obj 332 536 tgl 16 0 empty extra_hats empty 0 -8 0 10 #fcfcfc #000000 #000000 0 1;
#X obj 219 384 r init;
#X msg 408 281 \; i1 1 \; extra_hats 1 \;;
#X msg 202 177 \; i1 0 \; i2 0 \; i3 0 \; i4 0 \; i7 0 \; extra_claps 0 \; extra_hats 0 \;;
#X msg 219 415 37;
#X msg 560 415 14;
#X text 488 120 This changes the drum pattern every 4 bars, f 24;
#X text 326 38 Drum Sequencer;
#X text 123 174 Initial values are set on load/reset, f 10;
#X text 376 375 Randomiser for extra percussive fills, f 21;
#X text 50 466 Adds extra hi-hats with ^ this much probability, f 30;
#X text 77 415 Default probability;
#X text 190 660 This patch counts how far into the sonification it is and changes the drum patterns accordingly. It introduces elements of randomness in the hi-hat and clap patterns to give each sonification some unique percussive flair., f 50;
#X text 281 759 Created by George Caselton;
#X text 291 785 Last updated: 19/08/2024;
#X connect 2 0 3 0;
#X connect 3 0 22 0;
#X connect 4 0 5 0;
#X connect 5 0 34 0;
#X connect 6 0 9 0;
#X connect 6 1 10 0;
#X connect 7 0 8 0;
#X connect 8 0 16 0;
#X connect 8 0 28 0;
#X connect 9 0 18 0;
#X connect 10 0 18 0;
#X connect 11 0 6 0;
#X connect 12 0 11 1;
#X connect 13 0 36 0;
#X connect 16 0 17 0;
#X connect 17 0 11 0;
#X connect 18 0 1 0;
#X connect 19 0 18 1;
#X connect 22 0 33 0;
#X connect 22 1 21 0;
#X connect 22 2 20 0;
#X connect 23 0 24 0;
#X connect 23 1 25 0;
#X connect 24 0 30 0;
#X connect 25 0 30 0;
#X connect 26 0 23 0;
#X connect 27 0 26 1;
#X connect 28 0 29 0;
#X connect 29 0 26 0;
#X connect 30 0 0 0;
#X connect 31 0 30 1;
#X connect 32 0 35 0;
#X connect 35 0 27 0;
#X connect 36 0 12 0;
#X coords 0 861 1 860 85 60 0;
