#N canvas 2994 237 807 742 12;
#X obj 316 185 bng 19 250 50 0 empty empty empty 0 -10 0 12 #fcfcfc #000000 #000000;
#X msg 316 251 next;
#X msg 360 250 rewind;
#X obj 316 151 metro 100;
#X obj 386 344 qlist pitches;
#X obj 290 344 qlist rates;
#X text 320 46 Elevation Reader;
#X obj 360 185 loadbang;
#X text 292 595 Created by George Caselton;
#X text 313 628 Last updated: 2/8/24;
#X text 275 369 click on either qlist object to see the values, f 27;
#X text 183 470 This sub-patch reads both the pitch and the rate values from their respective files \, and cycles through them at 100 msec intervals. As the data is at a 10m resolution \, this corresponds to 100m per second. The values are then sent to the [receive pitch] and [receive rate] objects in the pulses.pd sub-patch.;
#X obj 270 185 sel 0;
#X text 428 186 Reads both data files on load, f 15;
#X text 390 151 Cycles through the data every 100ms;
#X msg 417 250 read inputs/pitches.txt;
#X msg 158 251 read inputs/rates.txt;
#X obj 553 363 delay 1500;
#X msg 474 374 0;
#X msg 553 389 0;
#X obj 316 120 r e_PLAY_s;
#X obj 474 401 s e_PLAY_r;
#X obj 553 418 s e_RECORD_r;
#X obj 43 127 loadbang;
#X msg 43 156 \; pd dsp 1 \;;
#X text 25 196 This turns on audio upon loading, f 18;
#X connect 0 0 1 0;
#X connect 1 0 5 0;
#X connect 1 0 4 0;
#X connect 2 0 5 0;
#X connect 2 0 4 0;
#X connect 3 0 0 0;
#X connect 4 1 17 0;
#X connect 4 1 18 0;
#X connect 7 0 16 0;
#X connect 7 0 15 0;
#X connect 7 0 2 0;
#X connect 12 0 2 0;
#X connect 15 0 4 0;
#X connect 16 0 5 0;
#X connect 17 0 19 0;
#X connect 18 0 21 0;
#X connect 19 0 22 0;
#X connect 20 0 3 0;
#X connect 20 0 12 0;
#X connect 23 0 24 0;
