#N canvas 3012 179 582 722 12;
#X obj 261 134 tgl 50 0 e_PLAY_s e_PLAY_r PLAY 6 -10 0 15 #c6ffc7 #000000 #000000 0 1;
#X obj 47 118 elevation_reader;
#X obj 47 148 pulses;
#X obj 47 176 km_marker;
#N canvas 0 50 450 250 (subpatch) 0;
#X array elevation_profile 500 float 4;
#X coords 0 1.05 499 0 373 254 1 0 0;
#X restore 109 292 graph;
#X obj 49 207 graph_plotter;
#X text 253 192 Click me!;
#X text 45 92 (click to view);
#X text 60 65 Sub-Patches;
#X listbox 109 553 37 0 0 0 - parkrun_name - 16;
#X obj 354 134 tgl 50 0 empty e_RECORD_r RECORD 0 -10 0 15 #ffc7c6 #000000 #000000 0 1;
#X obj 354 193 audio_recorder;
#X obj 354 219 s e_PLAY_r;
#X text 235 26 Elevation Main;
#X text 197 643 Created by George Caselton;
#X text 209 672 Last updated: 19/08/2024;
#X connect 10 0 11 0;
#X connect 11 0 12 0;
