#N canvas 2573 236 1258 777 12;
#X text 572 49 Graph Plotter;
#X obj 635 387 qlist graph_data;
#X msg 407 296 rewind;
#X obj 635 244 loadbang;
#X obj 157 452 tabwrite elevation_profile;
#X msg 657 352 next;
#X floatatom 157 408 5 0 0 0 - - - 0;
#X floatatom 336 420 5 0 0 0 - - - 0;
#X obj 385 385 + 1;
#X obj 657 322 r plot;
#X obj 264 366 r plot;
#X obj 336 385 f;
#X msg 354 357 0;
#X obj 267 202 bng 19 250 50 0 empty empty empty 0 -10 0 12 #fcfcfc #000000 #000000;
#X obj 267 229 s plot;
#X obj 267 175 metro 100;
#X msg 386 203 \; elevation_profile const 0;
#X text 439 536 This patch reads in the elevation points (normalised from 0 to 1) from graph_data.txt and cycles through them at the same rate at which they are sonified. It simultaneously plots them on the elevation_profile graph for a visual aid to the sonified elevation profile.;
#X text 544 671 Created by George Caselton;
#X text 566 706 Last updated: 4/8/24;
#X text 164 212 Send a signal every 100ms, f 13;
#X text 401 176 Clear the graph every time it starts;
#X text 633 420 Click on the qlist object to see the data, f 24;
#X text 380 415 X cooordinate (index of the array being written to), f 28;
#X text 111 337 Receive Y coordinate here, f 20;
#X obj 354 175 sel 0;
#X obj 157 365 r graph_data;
#X floatatom 902 327 5 0 0 0 - - - 0;
#X msg 902 303 0;
#X obj 945 327 text define name;
#X obj 902 355 text get name;
#X obj 902 382 s parkrun_name;
#X obj 902 239 loadbang;
#X obj 902 272 t b b;
#X text 970 258 This mechanism reads in the name of the parkrun, f 25;
#X msg 945 303 read inputs/parkrun_name.txt;
#X msg 635 276 read inputs/graph_data.txt;
#X obj 309 122 r e_PLAY_s;
#X connect 2 0 1 0;
#X connect 3 0 36 0;
#X connect 3 0 2 0;
#X connect 5 0 1 0;
#X connect 6 0 4 0;
#X connect 7 0 4 1;
#X connect 8 0 11 1;
#X connect 9 0 5 0;
#X connect 10 0 11 0;
#X connect 11 0 8 0;
#X connect 11 0 7 0;
#X connect 12 0 11 1;
#X connect 13 0 14 0;
#X connect 15 0 13 0;
#X connect 25 0 12 0;
#X connect 25 0 2 0;
#X connect 25 1 16 0;
#X connect 26 0 6 0;
#X connect 27 0 30 0;
#X connect 28 0 27 0;
#X connect 30 0 31 0;
#X connect 32 0 33 0;
#X connect 33 0 28 0;
#X connect 33 1 35 0;
#X connect 35 0 29 0;
#X connect 36 0 1 0;
#X connect 37 0 15 0;
#X connect 37 0 25 0;
