#N canvas 2941 242 582 680 12;
#X floatatom 161 204 5 0 0 0 - - - 0;
#X obj 161 254 sel 0 1 2 3 4 5 6 7 8 9 10 11;
#X obj 73 283 s B;
#X obj 102 283 s C;
#X obj 131 283 s Db;
#X obj 167 283 s D;
#X obj 196 283 s Eb;
#X obj 232 283 s E;
#X obj 261 283 s F;
#X obj 290 283 s Gb;
#X obj 326 283 s G;
#X obj 355 283 s Ab;
#X obj 391 283 s A;
#X obj 420 283 s Bb;
#X text 130 395 This patch uses a pseudo-random number generator to determine the musical key of the composition. This is then sent to the bass_synth patch and the synth patch., f 37;
#X text 217 350 Key Chooser;
#X obj 273 222 send root_key;
#X obj 161 134 r init;
#X obj 161 170 random++ 12;
#X text 169 495 Created by George Caselton;
#X text 179 528 Last updated: 19/08/2024;
#X connect 0 0 1 0;
#X connect 0 0 16 0;
#X connect 1 0 2 0;
#X connect 1 1 3 0;
#X connect 1 2 4 0;
#X connect 1 3 5 0;
#X connect 1 4 6 0;
#X connect 1 5 7 0;
#X connect 1 6 8 0;
#X connect 1 7 9 0;
#X connect 1 8 10 0;
#X connect 1 9 11 0;
#X connect 1 10 12 0;
#X connect 1 11 13 0;
#X connect 17 0 18 0;
#X connect 18 0 0 0;
