#N canvas 3543 229 976 962 12;
#X text 436 46 Km Marker;
#X obj 216 228 bng 19 250 50 0 empty empty empty 0 -10 0 12 #fcfcfc #000000 #000000;
#X obj 216 265 f;
#X floatatom 216 297 5 0 0 0 - - - 0;
#X obj 256 266 + 1;
#X floatatom 605 221 5 0 0 0 - - - 0;
#X obj 605 253 mtof;
#X obj 616 423 *~;
#X obj 602 291 phasor~;
#X obj 602 319 *~ 2;
#X obj 602 348 +~ 1;
#X obj 682 374 vline~;
#X obj 681 405 *~;
#X obj 607 526 dac~;
#X floatatom 527 221 5 0 0 0 - - - 0;
#X obj 527 252 mtof;
#X obj 524 290 phasor~;
#X obj 524 318 *~ 2;
#X obj 524 347 +~ 1;
#X obj 216 561 metro 250;
#X obj 216 326 * 250;
#X floatatom 216 353 5 0 0 0 - - - 0;
#X obj 216 527 tgl 19 0 empty empty empty 0 -10 0 12 #fcfcfc #000000 #000000 0 1;
#X obj 145 490 delay;
#X obj 216 194 metro 10000;
#X msg 262 237 0;
#X obj 177 393 - 1;
#X obj 118 433 > 0;
#X obj 118 460 sel 1;
#X obj 216 597 s km_marker_ON;
#X obj 688 306 r km_marker_ON;
#X text 229 108 Timer;
#X text 641 116 Synth;
#X text 86 193 10 seconds per km;
#X text 29 428 Ensures no chord is played on the 0th km, f 10;
#X obj 558 153 loadbang;
#X text 691 281 Receives timing here;
#X text 382 810 Created by George Caselton;
#X text 403 843 Last updated: 2/8/24;
#X text 263 297 Current km;
#X text 273 715 This patch plays a short chord as an audible marker for every kilometre surpassed. The number of times the chord is struck corresponds to the ordinality of the kilometre. E.g. 1 strike = 1 km passed \, 2 strikes = 2 km passed etc.;
#X obj 310 194 sel 0;
#X msg 527 191 48;
#X msg 605 191 55;
#X text 475 221 C note;
#X text 648 224 G note;
#X obj 617 483 *~ 0.2;
#X msg 688 339 0.5 20 \, 0 600 50;
#X obj 647 526 throw~ OUT;
#X obj 618 452 lop~ 1000;
#X obj 217 152 r e_PLAY_s;
#X connect 1 0 2 0;
#X connect 2 0 3 0;
#X connect 2 0 4 0;
#X connect 3 0 20 0;
#X connect 4 0 2 1;
#X connect 5 0 6 0;
#X connect 6 0 8 0;
#X connect 7 0 49 0;
#X connect 8 0 9 0;
#X connect 9 0 10 0;
#X connect 10 0 7 0;
#X connect 11 0 12 0;
#X connect 11 0 12 1;
#X connect 12 0 7 1;
#X connect 14 0 15 0;
#X connect 15 0 16 0;
#X connect 16 0 17 0;
#X connect 17 0 18 0;
#X connect 18 0 7 0;
#X connect 19 0 29 0;
#X connect 20 0 21 0;
#X connect 21 0 22 0;
#X connect 21 0 26 0;
#X connect 22 0 19 0;
#X connect 23 0 22 0;
#X connect 24 0 1 0;
#X connect 25 0 2 1;
#X connect 26 0 23 1;
#X connect 26 0 27 0;
#X connect 27 0 28 0;
#X connect 28 0 23 0;
#X connect 30 0 47 0;
#X connect 35 0 42 0;
#X connect 35 0 43 0;
#X connect 41 0 25 0;
#X connect 42 0 14 0;
#X connect 43 0 5 0;
#X connect 46 0 13 0;
#X connect 46 0 13 1;
#X connect 46 0 48 0;
#X connect 47 0 11 0;
#X connect 49 0 46 0;
#X connect 50 0 24 0;
#X connect 50 0 41 0;
