#N canvas 2646 54 1276 1073 12;
#X obj 106 59 receive~ Drums;
#X obj 152 302 vu 19 200 vu_1 empty -1 -10 0 12 #404040 #000000 1 0;
#X obj 106 192 env~;
#X obj 106 222 - 95;
#X obj 105 301 vsl 19 200 0 1 0 0 lvl1 drum_vol Drums 0 -9 0 14 #bbbbbb #000000 #000000 0 1;
#X obj 135 91 receive lvl1;
#X obj 106 117 *~;
#X obj 135 117 pow 2;
#X obj 960 293 vu 19 200 vu_master empty -1 -10 0 12 #404040 #000000 1 0;
#X obj 913 292 vsl 19 200 0 1 0 0 lvl_master master_vol Master 0 -9 0 14 #bbbbbb #000000 #000000 0 1;
#X obj 914 179 env~;
#X obj 914 209 - 95;
#X obj 914 143 *~;
#X obj 956 142 pow 2;
#X obj 914 240 send vu_master;
#X obj 106 253 send vu_1;
#X obj 966 208 dac~;
#X obj 378 301 vu 19 200 vu_2 empty -1 -10 0 12 #404040 #000000 1 0;
#X obj 332 191 env~;
#X obj 332 221 - 95;
#X obj 331 300 vsl 19 200 0 1 0 0 lvl2 bass_vol Bass 0 -9 0 14 #bbbbbb #000000 #000000 0 1;
#X obj 332 116 *~;
#X obj 361 116 pow 2;
#X obj 332 63 receive~ Bass;
#X obj 361 90 receive lvl2;
#X obj 332 252 send vu_2;
#X obj 344 167 throw~ Master;
#X obj 116 169 throw~ Master;
#X obj 914 88 catch~ Master;
#X obj 610 297 vu 19 200 vu_3 empty -1 -10 0 12 #404040 #000000 1 0;
#X obj 564 187 env~;
#X obj 563 296 vsl 19 200 0 1 0 0 lvl3 synth_vol Synth 0 -9 0 14 #bbbbbb #000000 #000000 0 1;
#X obj 564 118 *~;
#X obj 594 117 pow 2;
#X obj 575 165 throw~ Master;
#X obj 594 89 receive lvl3;
#X obj 564 248 send vu_3;
#X obj 964 177 hip~ 5;
#X obj 181 117 r rev1;
#X obj 107 533 hsl 100 19 0 0.1 0 0 rev1 drum_verb Reverb\ Send -2 -10 0 12 #ffe3c6 #000000 #000000 0 1;
#X obj 413 118 r rev2;
#X obj 331 531 hsl 100 19 0 0.1 0 0 rev2 empty Reverb\ Send -2 -10 0 12 #ffe3c6 #000000 #000000 0 1;
#X obj 564 530 hsl 100 19 0 1 0 0 rev3 synth_verb Reverb\ Send -2 -10 0 12 #ffe3c6 #000000 #000000 0 1;
#X obj 639 117 r rev3;
#N canvas 3074 229 803 635 reverb 0;
#X obj 104 309 freeverb~;
#X msg 238 95 wet \$1;
#X msg 238 183 dry \$1;
#X msg 232 291 roomsize \$1;
#X obj 243 254 hsl 200 25 0 1 0 0 empty empty empty -2 -10 0 12 #ff8300 #000000 #000000 0 1;
#X obj 113 380 throw~ Master;
#X obj 198 334 inlet;
#X obj 104 166 inlet~;
#X msg 238 71 1;
#X obj 238 47 loadbang;
#X obj 113 353 *~;
#X obj 238 134 loadbang;
#X msg 238 159 0;
#X connect 0 0 10 0;
#X connect 0 1 10 0;
#X connect 1 0 0 0;
#X connect 2 0 0 0;
#X connect 3 0 0 0;
#X connect 4 0 3 0;
#X connect 6 0 10 1;
#X connect 7 0 0 0;
#X connect 7 0 0 1;
#X connect 8 0 1 0;
#X connect 9 0 8 0;
#X connect 10 0 5 0;
#X connect 11 0 12 0;
#X connect 12 0 2 0;
#X restore 121 144 pd reverb;
#N canvas 3074 229 803 635 reverb 0;
#X obj 104 309 freeverb~;
#X msg 238 95 wet \$1;
#X msg 238 183 dry \$1;
#X msg 232 291 roomsize \$1;
#X obj 243 254 hsl 200 25 0 1 0 0 empty empty empty -2 -10 0 12 #ff8300 #000000 #000000 0 1;
#X obj 113 380 throw~ Master;
#X obj 198 334 inlet;
#X obj 104 166 inlet~;
#X msg 238 71 1;
#X obj 238 47 loadbang;
#X obj 113 353 *~;
#X obj 238 134 loadbang;
#X msg 238 159 0;
#X connect 0 0 10 0;
#X connect 0 1 10 0;
#X connect 1 0 0 0;
#X connect 2 0 0 0;
#X connect 3 0 0 0;
#X connect 4 0 3 0;
#X connect 6 0 10 1;
#X connect 7 0 0 0;
#X connect 7 0 0 1;
#X connect 8 0 1 0;
#X connect 9 0 8 0;
#X connect 10 0 5 0;
#X connect 11 0 12 0;
#X connect 12 0 2 0;
#X restore 353 144 pd reverb;
#N canvas 3074 229 802 635 reverb 0;
#X obj 104 309 freeverb~;
#X msg 238 95 wet \$1;
#X msg 238 183 dry \$1;
#X msg 232 291 roomsize \$1;
#X obj 243 254 hsl 200 25 0 1 0 0 empty empty empty -2 -10 0 12 #ff8300 #000000 #000000 0 1;
#X obj 113 380 throw~ Master;
#X obj 198 334 inlet;
#X obj 104 166 inlet~;
#X msg 238 71 1;
#X obj 238 47 loadbang;
#X obj 113 353 *~;
#X obj 238 134 loadbang;
#X msg 238 159 0;
#X connect 0 0 10 0;
#X connect 0 1 10 0;
#X connect 1 0 0 0;
#X connect 2 0 0 0;
#X connect 3 0 0 0;
#X connect 4 0 3 0;
#X connect 6 0 10 1;
#X connect 7 0 0 0;
#X connect 7 0 0 1;
#X connect 8 0 1 0;
#X connect 9 0 8 0;
#X connect 10 0 5 0;
#X connect 11 0 12 0;
#X connect 12 0 2 0;
#X restore 579 141 pd reverb;
#X obj 565 62 receive~ Synth;
#X obj 564 217 - 95;
#X obj 1005 208 throw~ OUT;
#X obj 74 609 r init;
#X obj 1005 142 receive lvl_master;
#X obj 311 894 s synth_vol;
#X obj 311 829 line;
#X obj 311 707 r counter;
#X floatatom 311 734 5 0 0 0 - - - 0;
#X floatatom 311 856 5 0 0 0 - - - 0;
#X obj 311 764 sel 16;
#X obj 418 829 line;
#X floatatom 418 858 5 0 0 0 - - - 0;
#X obj 418 895 s synth_verb;
#X msg 311 798 0 \, 0.75 10000;
#X msg 418 797 1 \, 0.15 10000;
#X obj 561 599 tabwrite~ arp_waveform;
#X text 561 623 Sends the signal to the waveform visualiser, f 25;
#X obj 561 570 r waveform_clock;
#X obj 602 190 s~ synth_mix;
#X obj 685 571 r~ synth_mix;
#X msg 74 645 \; drum_vol 0.85 \; drum_verb 0.015 \; bass_vol 0.85 \; synth_vol 0 \; synth_verb 0.5 \; master_vol 0.7 \; pd dsp 1 \;;
#X text 976 659 Mixer;
#X text 898 803 Created by George Caselton;
#X text 856 705 This patch receive the signals from each instrument and mixes them together with some effects and volume control before sending them to the Digital to Audio Converter (dac)., f 40;
#X text 914 835 Last updated: 19/08/2024;
#X text 69 770 Initial settings;
#X text 371 757 This automates the synth to fade in with some reverb, f 29;
#X connect 0 0 6 0;
#X connect 2 0 3 0;
#X connect 3 0 15 0;
#X connect 5 0 7 0;
#X connect 6 0 2 0;
#X connect 6 0 27 0;
#X connect 6 0 44 0;
#X connect 7 0 6 1;
#X connect 10 0 11 0;
#X connect 11 0 14 0;
#X connect 12 0 10 0;
#X connect 12 0 37 0;
#X connect 13 0 12 1;
#X connect 18 0 19 0;
#X connect 19 0 25 0;
#X connect 21 0 18 0;
#X connect 21 0 26 0;
#X connect 21 0 45 0;
#X connect 22 0 21 1;
#X connect 23 0 21 0;
#X connect 24 0 22 0;
#X connect 28 0 12 0;
#X connect 30 0 48 0;
#X connect 32 0 30 0;
#X connect 32 0 34 0;
#X connect 32 0 46 0;
#X connect 32 0 66 0;
#X connect 33 0 32 1;
#X connect 35 0 33 0;
#X connect 37 0 16 0;
#X connect 37 0 16 1;
#X connect 37 0 49 0;
#X connect 38 0 44 1;
#X connect 40 0 45 1;
#X connect 43 0 46 1;
#X connect 47 0 32 0;
#X connect 48 0 36 0;
#X connect 50 0 68 0;
#X connect 51 0 13 0;
#X connect 53 0 56 0;
#X connect 54 0 55 0;
#X connect 55 0 57 0;
#X connect 56 0 52 0;
#X connect 57 0 61 0;
#X connect 57 0 62 0;
#X connect 58 0 59 0;
#X connect 59 0 60 0;
#X connect 61 0 53 0;
#X connect 62 0 58 0;
#X connect 65 0 63 0;
#X connect 67 0 63 0;
