#N canvas 2978 406 1075 690 12;
#X obj 505 385 qlist pace_data;
#X obj 505 317 bng 19 250 50 0 empty empty empty 0 -10 0 12 #fcfcfc #000000 #000000;
#X msg 505 350 next;
#X text 469 60 Pace Reader;
#X obj 486 155 r init;
#X msg 374 239 rewind;
#X obj 374 156 sel 0;
#X obj 505 287 receive 4_bars;
#X msg 445 239 next;
#X obj 730 218 r counter;
#X floatatom 730 242 5 0 0 0 - - - 0;
#X obj 730 267 sel 320;
#X obj 374 195 bng 19 250 50 0 empty empty empty 0 -10 0 12 #fcfcfc #000000 #000000;
#X obj 374 132 r p_PLAY_s;
#X obj 730 337 s p_PLAY_r;
#X obj 812 369 s p_RECORD_r;
#X msg 730 306 0;
#X msg 812 338 0;
#X obj 812 308 delay 2000;
#X obj 38 246 s init;
#X floatatom 100 301 5 0 0 0 - - - 0;
#X msg 100 277 0;
#X obj 143 301 text define name;
#X obj 100 329 text get name;
#X obj 100 213 loadbang;
#X obj 100 246 t b b;
#X text 152 239 This mechanism reads in the name of the data file, f 25;
#X msg 143 277 read inputs/data_name.txt;
#X obj 100 356 s data_name;
#X msg 486 239 read inputs/bpm.txt;
#X text 493 214 Read in tempos on load;
#X text 502 266 Cycle through every 4 bars;
#X text 797 245 This counter stops the sonification and stops recording at the end, f 23;
#X text 298 469 This module reads in the tempo data from bpm.txt and cycles through it every 4 bars. This is then sent to the clock.pd patch to change the bpm of the sonification. This module also contains a mechanism to read in the name of the data file \, and a counter which sends a 0 signal to the PLAY and RECORD buttons at the end., f 66;
#X text 443 611 Created by George Caselton;
#X text 455 644 Last updated: 10/08/2024;
#X connect 1 0 2 0;
#X connect 2 0 0 0;
#X connect 4 0 29 0;
#X connect 4 0 12 0;
#X connect 5 0 0 0;
#X connect 6 0 12 0;
#X connect 7 0 1 0;
#X connect 8 0 0 0;
#X connect 9 0 10 0;
#X connect 10 0 11 0;
#X connect 11 0 16 0;
#X connect 11 0 18 0;
#X connect 12 0 5 0;
#X connect 12 0 8 0;
#X connect 13 0 6 0;
#X connect 16 0 14 0;
#X connect 17 0 15 0;
#X connect 18 0 17 0;
#X connect 20 0 23 0;
#X connect 21 0 20 0;
#X connect 23 0 28 0;
#X connect 24 0 25 0;
#X connect 24 0 19 0;
#X connect 25 0 21 0;
#X connect 25 1 27 0;
#X connect 27 0 22 0;
#X connect 29 0 0 0;
