#N canvas 3398 207 786 840 12;
#X text 350 52 Pulses;
#X obj 300 255 bng 25 250 50 0 empty empty empty 0 -10 0 12 #e3c6ff #000000 #000000;
#X obj 300 341 vline~;
#X obj 293 375 *~;
#X obj 246 393 *~;
#X obj 237 497 dac~;
#X obj 247 422 clip~ -1 1;
#X floatatom 406 196 5 50 500 0 - - - 0;
#X obj 247 258 osc~;
#X floatatom 247 171 5 0 0 0 - - - 0;
#X text 70 138 The pitch (in hz) is sent to a sine wave generator (osc~ object), f 23;
#X text 73 201 The higher the elevation \, the higher the pitch, f 23;
#X text 390 231 The steeper the incline/decline \, the faster the rate, f 26;
#X text 208 600 This patch receives the pitch and rate values from elevation_reader.pd and transforms them into short \, tonal pulses to signify elevation change.;
#X text 291 671 Created by George Caselton;
#X text 312 704 Last updated: 2/8/24;
#X text 505 157 The rate (in msec) tells the metronome object how frequently to trigger the pulse, f 31;
#X obj 300 214 metro;
#X obj 247 136 receive pitches;
#X obj 406 163 receive rates;
#X msg 300 308 1.05 5 \, 0 200 5;
#X obj 246 452 *~ 0.4;
#X obj 277 497 throw~ OUT;
#X obj 300 172 r e_PLAY_s;
#X connect 1 0 20 0;
#X connect 2 0 3 0;
#X connect 2 0 3 1;
#X connect 3 0 4 1;
#X connect 4 0 6 0;
#X connect 6 0 21 0;
#X connect 7 0 17 1;
#X connect 8 0 4 0;
#X connect 9 0 8 0;
#X connect 17 0 1 0;
#X connect 18 0 9 0;
#X connect 19 0 7 0;
#X connect 20 0 2 0;
#X connect 21 0 5 0;
#X connect 21 0 5 1;
#X connect 21 0 22 0;
#X connect 23 0 17 0;
