#N canvas 3057 289 582 714 12;
#X obj 267 114 inlet;
#X msg 214 266 seed \$1;
#X obj 214 151 realtime;
#X floatatom 214 235 6 0 0 0 - - - 0;
#X obj 214 179 * 10000;
#X obj 214 361 outlet;
#X obj 214 325 random \$1;
#X text 241 55 Random++;
#X text 102 435 This sub-patch was created out of necessity due to problems with Pure Data's in-built [random] object outputting the same sequence of 'random' numbers upon each startup. Random++ uses the elapsed system time since loading to generate a new seed value for [random] on every load., f 52;
#X text 183 567 Created by George Caselton;
#X text 201 591 Last updated: 29/07/24;
#X obj 343 235 delay 10;
#X obj 214 207 int;
#X connect 0 0 2 1;
#X connect 0 0 11 0;
#X connect 1 0 6 0;
#X connect 2 0 4 0;
#X connect 3 0 1 0;
#X connect 4 0 12 0;
#X connect 6 0 5 0;
#X connect 11 0 6 0;
#X connect 12 0 3 0;
