#N canvas 2797 224 658 848 12;
#X obj 177 417 freeverb~;
#X msg 311 203 wet \$1;
#X msg 311 291 dry \$1;
#X msg 305 399 roomsize \$1;
#X obj 316 362 hsl 200 25 0 1 0 0 empty empty empty -2 -10 0 12 #ff8300 #000000 #000000 0 1;
#X obj 186 488 throw~ Master;
#X obj 271 442 inlet;
#X obj 177 274 inlet~;
#X msg 311 179 1;
#X obj 311 155 loadbang;
#X obj 186 461 *~;
#X obj 311 242 loadbang;
#X msg 311 267 0;
#X text 285 53 Reverb;
#X text 210 581 This patch initialises the built-in freeverb~ object for use in the mixer as a reverb send., f 34;
#X text 232 651 Created by George Caselton;
#X text 239 682 Last updated: 19/08/2024, f 25;
#X connect 0 0 10 0;
#X connect 0 1 10 0;
#X connect 1 0 0 0;
#X connect 2 0 0 0;
#X connect 3 0 0 0;
#X connect 4 0 3 0;
#X connect 6 0 10 1;
#X connect 7 0 0 0;
#X connect 7 0 0 1;
#X connect 8 0 1 0;
#X connect 9 0 8 0;
#X connect 10 0 5 0;
#X connect 11 0 12 0;
#X connect 12 0 2 0;
